 <svg
                id="color"
                className="h-8 w-auto sm:h-10"
                enable-background="new 0 0 24 24"
                height="512"
                viewBox="0 0 24 24"
                width="512"
                xmlns="http://www.w3.org/2000/svg"
              >
                <g>
                  <g>
                    <path
                      d="m17.543 12.933c-.27-.121-.584-.074-.806.124l-4.159 3.703c-.188.167-.28.417-.244.667l.67 4.677c.04.281.253.498.522.588l.222.035c.207 0 .416-.086.563-.234 2.369-2.37 3.674-5.521 3.674-8.875.001-.296-.172-.564-.442-.685z"
                      fill="#4f46e5"
                    />
                  </g>
                </g>
                <g>
                  <g>
                    <path
                      d="m10.383 6.014c-3.354 0-6.506 1.305-8.875 3.674l-.035.034c-.201.201-.271.498-.181.767.09.27.324.465.605.505l4.677.67.106.008c.212 0 .417-.09.56-.251l3.703-4.159c.197-.221.245-.536.124-.806-.121-.269-.389-.442-.684-.442z"
                      fill="#4f46e5"
                    />
                  </g>
                </g>
                <g>
                  <g>
                    <path
                      d="m11.878 19.151c-.192 0-.384-.074-.53-.22l-6.279-6.279c-.281-.281-.294-.733-.029-1.03l4.706-5.271c3.333-3.901 8.744-6.449 13.519-6.347.4.009.723.332.732.732.11 4.748-2.445 10.185-6.359 13.529l-5.259 4.695c-.144.128-.322.191-.501.191z"
                      fill="#eceff1"
                    />
                  </g>
                </g>
                <g>
                  <g>
                    <path
                      d="m17.133 9.366c-.641 0-1.281-.244-1.768-.731-.974-.975-.974-2.561 0-3.536.975-.975 2.561-.975 3.536 0 .974.975.974 2.561 0 3.536-.488.488-1.128.731-1.768.731z"
                      fill="#4f46e5"
                    />
                  </g>
                </g>
                <g>
                  <g>
                    <path
                      d="m.75 24c-.196 0-.388-.077-.53-.22-.195-.195-.267-.481-.188-.746.251-.841 1.56-5.089 2.582-6.11 1.193-1.192 3.271-1.192 4.462 0 .596.597.924 1.388.924 2.232 0 .843-.328 1.635-.924 2.231-1.021 1.021-5.27 2.33-6.11 2.582z"
                      fill="#ff9800"
                    />
                  </g>
                </g>
                <g>
                  <g>
                    <path
                      d="m10.037 6.018c-3.224.087-6.241 1.382-8.53 3.67l-.034.034c-.201.201-.271.498-.181.767.09.27.324.465.605.505l3.283.471 4.566-5.115c.095-.111.192-.222.291-.332z"
                      fill="#4f46e5"
                    />
                  </g>
                </g>
                <g>
                  <g>
                    <path
                      d="m22.986 0c-4.568 0-9.664 2.379-12.949 6.018-.099.11-.196.22-.292.332l-4.565 5.115-.14.157c-.265.297-.252.749.029 1.03l3.14 3.14 7.156-7.156c-.974-.975-.974-2.561 0-3.536.487-.487 1.128-.731 1.768-.731s1.281.244 1.768.731l4.877-4.877c-.132-.132-.313-.215-.513-.22-.093-.002-.186-.003-.279-.003z"
                      fill="#cdd0d2"
                    />
                  </g>
                </g>
                <g>
                  <g>
                    <path
                      d="m17.133 4.369c-.64 0-1.281.244-1.768.731-.974.975-.974 2.561 0 3.536l3.535-3.536c-.487-.488-1.127-.731-1.767-.731z"
                      fill="#4f46e5"
                    />
                  </g>
                </g>
                <g>
                  <g>
                    <path
                      d="m4.845 16.03c-.818 0-1.635.298-2.232.894-1.021 1.021-2.33 5.27-2.582 6.11-.079.264-.007.551.188.746l6.856-6.856c-.595-.596-1.412-.894-2.23-.894z"
                      fill="#de8400"
                    />
                  </g>
                </g>
              </svg>