<?xml version="1.0" encoding="utf-8"?>
<!-- Generator: Adobe Illustrator 16.0.0, SVG Export Plug-In . SVG Version: 6.00 Build 0)  -->
<!DOCTYPE svg PUBLIC "-//W3C//DTD SVG 1.1//EN" "http://www.w3.org/Graphics/SVG/1.1/DTD/svg11.dtd">
<svg version="1.1" id="Layer_1" xmlns="http://www.w3.org/2000/svg" xmlns:xlink="http://www.w3.org/1999/xlink" x="0px" y="0px"
	 width="2850px" height="2005.158px" viewBox="0 0 2850 2005.158" enable-background="new 0 0 2850 2005.158" xml:space="preserve">
<g>
	<defs>
		<rect id="SVGID_1_" y="0" width="2850" height="2005.158"/>
	</defs>
	<clipPath id="SVGID_2_">
		<use xlink:href="#SVGID_1_"  overflow="visible"/>
	</clipPath>
	<linearGradient id="SVGID_3_" gradientUnits="userSpaceOnUse" x1="1425.0005" y1="1316.1826" x2="1425.0005" y2="-15.5726">
		<stop  offset="0.168" style="stop-color:#D7E7F7"/>
		<stop  offset="0.2743" style="stop-color:#C2D9EC"/>
		<stop  offset="0.4943" style="stop-color:#8BB3D0"/>
		<stop  offset="0.8064" style="stop-color:#3478A2"/>
		<stop  offset="0.9534" style="stop-color:#095B8C"/>
	</linearGradient>
	<rect y="0" clip-path="url(#SVGID_2_)" fill="url(#SVGID_3_)" width="2850" height="2005.158"/>
	<path opacity="0.1" clip-path="url(#SVGID_2_)" fill="#FFFFFF" d="M1517.467-318.055
		c-810.976,0-1468.401,660.774-1468.401,1475.881s657.425,1475.881,1468.401,1475.881c810.985,0,1468.41-660.774,1468.41-1475.881
		S2328.452-318.055,1517.467-318.055z"/>
	<path opacity="0.1" clip-path="url(#SVGID_2_)" fill="#FFFFFF" d="M1517.469,234.436c-507.39,0-918.71,413.415-918.71,923.39
		s411.32,923.39,918.71,923.39c507.396,0,918.717-413.415,918.717-923.39S2024.865,234.436,1517.469,234.436z"/>
	<g clip-path="url(#SVGID_2_)">
		<polygon opacity="0.93" fill="#FFFFFF" points="2382.46,390.671 2379.343,393.271 2376.084,390.812 2378.672,393.946 
			2376.225,397.22 2379.454,394.732 2382.601,397.079 2380.125,394.058 		"/>
		<polygon opacity="0.93" fill="#FFFFFF" points="2116.473,412.93 2114.719,415.5 2112.836,413.011 2114.342,416.168 
			2112.977,419.418 2114.797,416.961 2116.613,419.338 2115.173,416.294 		"/>
		<polygon opacity="0.93" fill="#FFFFFF" points="2313.617,208.607 2310.5,211.207 2307.242,208.749 2309.829,211.881 
			2307.383,215.156 2310.612,212.668 2313.758,215.014 2311.283,211.994 		"/>
		<polygon opacity="0.93" fill="#FFFFFF" points="1243.696,828.845 1240.578,831.445 1237.32,828.986 1239.907,832.12 
			1237.461,835.394 1240.69,832.907 1243.836,835.253 1241.361,832.232 		"/>
		<polygon opacity="0.93" fill="#FFFFFF" points="1900.995,818.941 1895.015,823.928 1888.766,819.212 1893.728,825.223 
			1889.035,831.505 1895.229,826.732 1901.266,831.233 1896.518,825.438 		"/>
		<polygon opacity="0.93" fill="#FFFFFF" points="1689.312,865.279 1686.195,867.879 1682.938,865.42 1685.524,868.553 
			1683.078,871.828 1686.308,869.34 1689.453,871.687 1686.979,868.666 		"/>
		<polygon opacity="0.93" fill="#FFFFFF" points="1919.015,517.956 1915.897,520.556 1912.639,518.097 1915.227,521.23 
			1912.78,524.505 1916.01,522.017 1919.155,524.363 1916.68,521.343 		"/>
		<polygon opacity="0.93" fill="#FFFFFF" points="2293.067,735.016 2288.405,738.906 2283.531,735.228 2287.4,739.915 
			2283.741,744.814 2288.572,741.093 2293.279,744.602 2289.576,740.083 		"/>
		<polygon opacity="0.93" fill="#FFFFFF" points="688.229,698.609 685.112,701.208 681.854,698.75 684.441,701.884 681.995,705.158 
			685.224,702.67 688.37,705.016 685.895,701.996 		"/>
		<polygon opacity="0.93" fill="#FFFFFF" points="1391.576,388.64 1388.458,391.241 1385.201,388.782 1387.788,391.915 
			1385.341,395.189 1388.571,392.702 1391.717,395.048 1389.242,392.027 		"/>
		<polygon opacity="0.93" fill="#FFFFFF" points="1582.621,433.977 1580.034,430.843 1582.48,427.568 1579.363,430.169 
			1576.104,427.71 1578.58,430.956 1576.246,434.118 1579.251,431.63 		"/>
		<polygon opacity="0.93" fill="#FFFFFF" points="2541.774,627.883 2539.188,624.75 2541.634,621.476 2538.516,624.076 
			2535.258,621.618 2537.733,624.862 2535.398,628.025 2538.404,625.537 		"/>
		<polygon opacity="0.93" fill="#FFFFFF" points="2749.218,560.645 2746.631,557.512 2749.077,554.237 2745.959,556.837 
			2742.701,554.379 2745.177,557.624 2742.842,560.786 2745.848,558.299 		"/>
		<polygon opacity="0.93" fill="#FFFFFF" points="159.563,708.291 156.976,705.158 159.422,701.883 156.305,704.483 
			153.047,702.025 155.522,705.27 153.188,708.432 156.193,705.944 		"/>
		<polygon opacity="0.93" fill="#FFFFFF" points="183.874,896.696 181.287,893.562 183.733,890.288 180.616,892.888 177.358,890.43 
			179.833,893.675 177.499,896.837 180.504,894.35 		"/>
		<polygon opacity="0.93" fill="#FFFFFF" points="421.882,980.068 419.294,976.935 421.741,973.66 418.624,976.26 415.365,973.802 
			417.841,977.047 415.506,980.209 418.512,977.722 		"/>
		<polygon opacity="0.93" fill="#FFFFFF" points="357.713,696.082 355.126,692.949 357.572,689.675 354.455,692.274 
			351.197,689.816 353.672,693.062 351.338,696.224 354.343,693.736 		"/>
		<polygon opacity="0.93" fill="#FFFFFF" points="404.179,719.6 401.592,716.467 404.038,713.192 400.92,715.792 397.663,713.334 
			400.138,716.58 397.803,719.742 400.809,717.254 		"/>
		<polygon opacity="0.93" fill="#FFFFFF" points="574.805,580.494 572.218,577.361 574.664,574.086 571.547,576.687 
			568.289,574.228 570.764,577.473 568.429,580.635 571.435,578.147 		"/>
		<polygon opacity="0.93" fill="#FFFFFF" points="1556.814,935.234 1554.229,932.101 1556.674,928.826 1553.557,931.426 
			1550.3,928.967 1552.773,932.213 1550.44,935.375 1553.445,932.888 		"/>
		<polygon opacity="0.93" fill="#FFFFFF" points="2782.937,902.187 2780.35,899.053 2782.796,895.778 2779.678,898.379 
			2776.42,895.92 2778.896,899.166 2776.561,902.328 2779.566,899.84 		"/>
		<polygon opacity="0.93" fill="#FFFFFF" points="2686.998,768.838 2684.41,765.706 2686.857,762.431 2683.74,765.03 
			2680.481,762.572 2682.957,765.817 2680.622,768.979 2683.628,766.492 		"/>
		<polygon opacity="0.93" fill="#FFFFFF" points="2725.051,743.048 2722.465,739.915 2724.91,736.641 2721.794,739.241 
			2718.535,736.782 2721.011,740.028 2718.677,743.19 2721.682,740.702 		"/>
		<polygon opacity="0.93" fill="#FFFFFF" points="2501.134,898.912 2498.547,895.778 2500.993,892.504 2497.876,895.104 
			2494.617,892.646 2497.093,895.891 2494.758,899.053 2497.764,896.565 		"/>
		<polygon opacity="0.93" fill="#FFFFFF" points="2346.544,976.793 2343.957,973.66 2346.403,970.385 2343.286,972.985 
			2340.027,970.527 2342.503,973.772 2340.168,976.935 2343.174,974.447 		"/>
		<polygon opacity="0.93" fill="#FFFFFF" points="2087.516,925.166 2084.929,922.033 2087.375,918.758 2084.258,921.358 
			2081,918.899 2083.475,922.145 2081.141,925.307 2084.146,922.819 		"/>
		<polygon opacity="0.93" fill="#FFFFFF" points="2212.311,546.001 2209.724,542.869 2212.169,539.594 2209.052,542.195 
			2205.794,539.736 2208.27,542.982 2205.935,546.144 2208.94,543.656 		"/>
		<polygon opacity="0.93" fill="#FFFFFF" points="2263.778,570.386 2261.191,567.253 2263.638,563.979 2260.521,566.578 
			2257.263,564.12 2259.737,567.365 2257.403,570.527 2260.408,568.041 		"/>
		<polygon opacity="0.93" fill="#FFFFFF" points="2077.883,641.163 2075.297,638.03 2077.742,634.756 2074.626,637.355 
			2071.368,634.897 2073.842,638.142 2071.509,641.304 2074.514,638.817 		"/>
		<polygon opacity="0.93" fill="#FFFFFF" points="1861.742,346.845 1859.155,343.712 1861.601,340.438 1858.483,343.038 
			1855.227,340.579 1857.701,343.825 1855.367,346.987 1858.372,344.499 		"/>
		<polygon opacity="0.93" fill="#FFFFFF" points="2180.873,264.502 2178.287,261.369 2180.732,258.094 2177.615,260.694 
			2174.357,258.235 2176.832,261.481 2174.499,264.643 2177.503,262.155 		"/>
		<polygon opacity="0.93" fill="#FFFFFF" points="874.147,888.798 869.485,892.689 864.611,889.011 868.48,893.697 864.821,898.596 
			869.652,894.875 874.359,898.385 870.656,893.866 		"/>
		<polygon opacity="0.93" fill="#FFFFFF" points="1800.625,646.901 1795.962,650.791 1791.088,647.113 1794.957,651.8 
			1791.299,656.699 1796.129,652.978 1800.836,656.487 1797.133,651.968 		"/>
		<polygon opacity="0.93" fill="#FFFFFF" points="1129.95,281.396 1126.833,283.995 1123.575,281.537 1126.162,284.67 
			1123.716,287.944 1126.944,285.457 1130.091,287.802 1127.616,284.782 		"/>
		<polygon opacity="0.93" fill="#FFFFFF" points="863.963,303.654 862.208,306.224 860.326,303.734 861.832,306.892 
			860.467,310.143 862.287,307.686 864.104,310.062 862.663,307.018 		"/>
		<polygon opacity="0.93" fill="#FFFFFF" points="1061.107,99.331 1057.99,101.931 1054.733,99.472 1057.319,102.605 
			1054.874,105.88 1058.103,103.393 1061.249,105.739 1058.774,102.718 		"/>
		<polygon opacity="0.93" fill="#FFFFFF" points="648.485,709.664 642.506,714.653 636.255,709.936 641.218,715.947 
			636.526,722.229 642.72,717.456 648.756,721.958 644.007,716.163 		"/>
		<polygon opacity="0.93" fill="#FFFFFF" points="436.803,756.003 433.686,758.603 430.428,756.145 433.015,759.277 
			430.568,762.552 433.798,760.064 436.944,762.41 434.469,759.39 		"/>
		<polygon opacity="0.93" fill="#FFFFFF" points="666.505,408.68 663.388,411.279 660.129,408.821 662.716,411.954 660.271,415.229 
			663.5,412.741 666.646,415.087 664.17,412.066 		"/>
		<polygon opacity="0.93" fill="#FFFFFF" points="1040.559,625.74 1035.895,629.63 1031.021,625.952 1034.892,630.639 
			1031.232,635.538 1036.062,631.816 1040.769,635.326 1037.066,630.808 		"/>
		<polygon opacity="0.93" fill="#FFFFFF" points="1289.265,518.607 1286.678,515.475 1289.124,512.2 1286.006,514.8 
			1282.749,512.341 1285.224,515.587 1282.89,518.749 1285.895,516.261 		"/>
		<polygon opacity="0.93" fill="#FFFFFF" points="1496.708,451.369 1494.121,448.236 1496.567,444.961 1493.45,447.561 
			1490.191,445.103 1492.667,448.348 1490.332,451.51 1493.338,449.022 		"/>
		<polygon opacity="0.93" fill="#FFFFFF" points="1530.427,792.91 1527.84,789.777 1530.286,786.502 1527.169,789.103 
			1523.911,786.644 1526.386,789.889 1524.052,793.052 1527.058,790.564 		"/>
		<polygon opacity="0.93" fill="#FFFFFF" points="1434.488,659.562 1431.9,656.429 1434.348,653.154 1431.23,655.754 
			1427.972,653.296 1430.447,656.542 1428.112,659.704 1431.118,657.216 		"/>
		<polygon opacity="0.93" fill="#FFFFFF" points="1472.542,633.772 1469.955,630.639 1472.401,627.364 1469.284,629.964 
			1466.026,627.506 1468.501,630.751 1466.167,633.914 1469.172,631.426 		"/>
		<polygon opacity="0.93" fill="#FFFFFF" points="1248.624,789.635 1246.037,786.502 1248.483,783.228 1245.366,785.828 
			1242.108,783.37 1244.583,786.615 1242.249,789.777 1245.254,787.289 		"/>
		<polygon opacity="0.93" fill="#FFFFFF" points="1094.034,867.517 1091.448,864.384 1093.894,861.11 1090.776,863.709 
			1087.519,861.251 1089.993,864.496 1087.659,867.658 1090.664,865.171 		"/>
		<polygon opacity="0.93" fill="#FFFFFF" points="835.006,815.889 832.419,812.757 834.865,809.482 831.748,812.082 828.49,809.624 
			830.965,812.869 828.63,816.031 831.636,813.544 		"/>
		<polygon opacity="0.93" fill="#FFFFFF" points="959.8,436.726 957.214,433.593 959.66,430.318 956.543,432.918 953.285,430.459 
			955.759,433.706 953.426,436.868 956.431,434.38 		"/>
		<polygon opacity="0.93" fill="#FFFFFF" points="1011.269,461.11 1008.683,457.977 1011.128,454.702 1008.011,457.303 
			1004.753,454.844 1007.228,458.09 1004.894,461.252 1007.899,458.764 		"/>
		<polygon opacity="0.93" fill="#FFFFFF" points="825.374,531.887 822.787,528.754 825.233,525.479 822.116,528.08 818.858,525.621 
			821.333,528.867 818.999,532.029 822.004,529.541 		"/>
		<polygon opacity="0.93" fill="#FFFFFF" points="609.233,237.569 606.646,234.436 609.092,231.161 605.975,233.761 
			602.716,231.304 605.191,234.548 602.857,237.71 605.863,235.223 		"/>
		<polygon opacity="0.93" fill="#FFFFFF" points="928.363,155.225 925.777,152.092 928.224,148.818 925.106,151.418 921.848,148.96 
			924.323,152.205 921.989,155.367 924.994,152.879 		"/>
		<polygon opacity="0.93" fill="#FFFFFF" points="548.116,537.625 543.452,541.515 538.578,537.837 542.448,542.524 
			538.789,547.423 543.62,543.701 548.326,547.21 544.624,542.692 		"/>
		<polygon opacity="0.93" fill="#FFFFFF" points="769.86,242.862 766.743,245.461 763.486,243.003 766.072,246.136 763.626,249.41 
			766.855,246.923 770.001,249.269 767.527,246.248 		"/>
		<polygon opacity="0.93" fill="#FFFFFF" points="503.875,265.12 502.119,267.69 500.237,265.201 501.743,268.358 500.378,271.609 
			502.197,269.152 504.015,271.528 502.574,268.484 		"/>
		<polygon opacity="0.93" fill="#FFFFFF" points="701.018,60.797 697.902,63.397 694.644,60.939 697.23,64.072 694.785,67.347 
			698.014,64.859 701.159,67.204 698.685,64.185 		"/>
		<polygon opacity="0.93" fill="#FFFFFF" points="288.396,671.131 282.417,676.119 276.166,671.403 281.129,677.413 
			276.437,683.695 282.63,678.922 288.667,683.423 283.918,677.628 		"/>
		<polygon opacity="0.93" fill="#FFFFFF" points="76.714,717.469 73.597,720.069 70.338,717.61 72.926,720.744 70.479,724.018 
			73.708,721.53 76.854,723.876 74.379,720.856 		"/>
		<polygon opacity="0.93" fill="#FFFFFF" points="306.416,370.146 303.298,372.746 300.04,370.287 302.627,373.42 300.182,376.695 
			303.41,374.207 306.556,376.553 304.081,373.533 		"/>
		<polygon opacity="0.93" fill="#FFFFFF" points="680.47,587.206 675.806,591.097 670.932,587.418 674.802,592.105 671.143,597.004 
			675.973,593.283 680.68,596.792 676.977,592.274 		"/>
		<polygon opacity="0.93" fill="#FFFFFF" points="929.175,480.073 926.589,476.941 929.034,473.666 925.917,476.266 922.66,473.808 
			925.134,477.053 922.801,480.215 925.806,477.728 		"/>
		<polygon opacity="0.93" fill="#FFFFFF" points="1136.619,412.835 1134.032,409.702 1136.478,406.427 1133.36,409.028 
			1130.103,406.569 1132.578,409.814 1130.243,412.977 1133.249,410.489 		"/>
		<polygon opacity="0.93" fill="#FFFFFF" points="1170.337,754.376 1167.751,751.243 1170.197,747.969 1167.08,750.569 
			1163.822,748.11 1166.296,751.356 1163.963,754.518 1166.968,752.03 		"/>
		<polygon opacity="0.93" fill="#FFFFFF" points="1074.399,621.028 1071.812,617.896 1074.258,614.621 1071.141,617.221 
			1067.883,614.762 1070.357,618.008 1068.023,621.17 1071.029,618.682 		"/>
		<polygon opacity="0.93" fill="#FFFFFF" points="1112.453,595.238 1109.866,592.105 1112.312,588.831 1109.195,591.431 
			1105.937,588.972 1108.412,592.218 1106.078,595.38 1109.083,592.892 		"/>
		<polygon opacity="0.93" fill="#FFFFFF" points="888.535,751.102 885.948,747.969 888.394,744.694 885.276,747.294 
			882.019,744.835 884.494,748.081 882.159,751.243 885.165,748.755 		"/>
		<polygon opacity="0.93" fill="#FFFFFF" points="733.945,828.983 731.358,825.85 733.804,822.576 730.687,825.176 727.429,822.718 
			729.904,825.962 727.57,829.125 730.575,826.637 		"/>
		<polygon opacity="0.93" fill="#FFFFFF" points="474.917,777.356 472.33,774.223 474.776,770.949 471.659,773.548 468.4,771.09 
			470.875,774.335 468.542,777.497 471.547,775.009 		"/>
		<polygon opacity="0.93" fill="#FFFFFF" points="599.711,398.192 597.125,395.059 599.57,391.785 596.454,394.385 593.196,391.926 
			595.671,395.172 593.336,398.334 596.342,395.846 		"/>
		<polygon opacity="0.93" fill="#FFFFFF" points="651.18,422.577 648.593,419.443 651.039,416.169 647.922,418.769 644.664,416.311 
			647.138,419.556 644.805,422.718 647.81,420.23 		"/>
		<polygon opacity="0.93" fill="#FFFFFF" points="465.285,493.354 462.698,490.22 465.144,486.946 462.027,489.546 458.769,487.087 
			461.244,490.333 458.91,493.495 461.915,491.007 		"/>
		<polygon opacity="0.93" fill="#FFFFFF" points="249.144,199.036 246.556,195.902 249.002,192.627 245.885,195.228 
			242.627,192.769 245.103,196.015 242.768,199.177 245.773,196.689 		"/>
		<polygon opacity="0.93" fill="#FFFFFF" points="568.275,116.691 565.688,113.559 568.134,110.284 565.017,112.884 
			561.759,110.426 564.234,113.671 561.899,116.833 564.905,114.346 		"/>
		<polygon opacity="0.93" fill="#FFFFFF" points="188.026,499.091 183.363,502.981 178.488,499.303 182.359,503.99 178.7,508.889 
			183.53,505.168 188.237,508.677 184.534,504.158 		"/>
		<polygon opacity="0.93" fill="#FFFFFF" points="1646.439,617.328 1649.557,614.728 1652.814,617.186 1650.228,614.054 
			1652.674,610.779 1649.444,613.267 1646.299,610.92 1648.773,613.941 		"/>
		<polygon opacity="0.93" fill="#FFFFFF" points="1912.426,595.069 1914.181,592.5 1916.062,594.989 1914.557,591.832 
			1915.922,588.581 1914.103,591.037 1912.285,588.662 1913.726,591.705 		"/>
		<polygon opacity="0.93" fill="#FFFFFF" points="1715.281,799.392 1718.398,796.792 1721.656,799.25 1719.069,796.117 
			1721.516,792.844 1718.287,795.331 1715.141,792.985 1717.615,796.006 		"/>
		<polygon opacity="0.93" fill="#FFFFFF" points="2127.903,189.059 2133.884,184.071 2140.134,188.788 2135.171,182.777 
			2139.864,176.494 2133.669,181.267 2127.633,176.767 2132.382,182.561 		"/>
		<polygon opacity="0.93" fill="#FFFFFF" points="2339.586,142.721 2342.703,140.12 2345.961,142.579 2343.374,139.446 
			2345.82,136.171 2342.591,138.659 2339.444,136.312 2341.92,139.333 		"/>
		<polygon opacity="0.93" fill="#FFFFFF" points="2109.884,490.044 2113.002,487.444 2116.26,489.902 2113.673,486.769 
			2116.119,483.495 2112.89,485.982 2109.743,483.636 2112.219,486.657 		"/>
		<polygon opacity="0.93" fill="#FFFFFF" points="1735.831,272.983 1740.494,269.094 1745.368,272.771 1741.498,268.084 
			1745.157,263.186 1740.327,266.907 1735.62,263.397 1739.322,267.916 		"/>
		<polygon opacity="0.93" fill="#FFFFFF" points="1487.124,380.116 1489.712,383.25 1487.266,386.523 1490.383,383.924 
			1493.641,386.382 1491.166,383.137 1493.5,379.975 1490.494,382.461 		"/>
		<polygon opacity="0.93" fill="#FFFFFF" points="1279.681,447.355 1282.268,450.487 1279.822,453.762 1282.939,451.163 
			1286.197,453.621 1283.722,450.375 1286.057,447.213 1283.051,449.7 		"/>
		<polygon opacity="0.93" fill="#FFFFFF" points="1245.962,105.813 1248.549,108.946 1246.103,112.221 1249.22,109.621 
			1252.479,112.079 1250.003,108.833 1252.338,105.671 1249.332,108.159 		"/>
		<polygon opacity="0.93" fill="#FFFFFF" points="1341.901,239.162 1344.488,242.294 1342.042,245.569 1345.159,242.969 
			1348.417,245.427 1345.942,242.182 1348.276,239.02 1345.271,241.507 		"/>
		<polygon opacity="0.93" fill="#FFFFFF" points="1303.847,264.951 1306.434,268.084 1303.987,271.359 1307.105,268.759 
			1310.363,271.217 1307.888,267.972 1310.222,264.81 1307.217,267.297 		"/>
		<polygon opacity="0.93" fill="#FFFFFF" points="1527.765,109.088 1530.352,112.221 1527.905,115.496 1531.023,112.895 
			1534.281,115.354 1531.806,112.108 1534.141,108.946 1531.135,111.434 		"/>
		<polygon opacity="0.93" fill="#FFFFFF" points="1682.354,31.206 1684.942,34.339 1682.496,37.614 1685.613,35.014 
			1688.871,37.473 1686.396,34.227 1688.73,31.064 1685.725,33.552 		"/>
		<polygon opacity="0.93" fill="#FFFFFF" points="1941.383,82.833 1943.97,85.967 1941.523,89.241 1944.641,86.641 1947.899,89.1 
			1945.424,85.854 1947.759,82.692 1944.753,85.18 		"/>
		<polygon opacity="0.93" fill="#FFFFFF" points="1816.589,461.997 1819.175,465.13 1816.729,468.405 1819.847,465.805 
			1823.104,468.263 1820.63,465.018 1822.964,461.855 1819.959,464.343 		"/>
		<polygon opacity="0.93" fill="#FFFFFF" points="1765.12,437.613 1767.707,440.746 1765.261,444.021 1768.379,441.421 
			1771.637,443.879 1769.161,440.634 1771.496,437.472 1768.49,439.959 		"/>
		<polygon opacity="0.93" fill="#FFFFFF" points="1951.016,366.836 1953.602,369.969 1951.156,373.244 1954.272,370.643 
			1957.531,373.102 1955.056,369.856 1957.391,366.694 1954.385,369.182 		"/>
		<polygon opacity="0.93" fill="#FFFFFF" points="2167.157,661.154 2169.743,664.287 2167.298,667.562 2170.415,664.961 
			2173.672,667.42 2171.198,664.174 2173.531,661.012 2170.526,663.5 		"/>
		<polygon opacity="0.93" fill="#FFFFFF" points="1848.025,743.498 1850.611,746.631 1848.166,749.906 1851.283,747.305 
			1854.541,749.764 1852.066,746.519 1854.4,743.356 1851.395,745.844 		"/>
		<polygon opacity="0.93" fill="#FFFFFF" points="2228.273,361.098 2232.938,357.208 2237.812,360.886 2233.941,356.199 
			2237.6,351.3 2232.77,355.021 2228.063,351.513 2231.766,356.031 		"/>
	</g>
	<path opacity="0.1" clip-path="url(#SVGID_2_)" fill="#FFFFFF" d="M1517.47,667.37c-269.498,0-487.97,219.584-487.97,490.456
		c0,270.871,218.472,490.455,487.97,490.455c269.502,0,487.974-219.584,487.974-490.455
		C2005.443,886.955,1786.972,667.37,1517.47,667.37z"/>
	<ellipse opacity="0.4" clip-path="url(#SVGID_2_)" fill="#FFFFFF" cx="1534.436" cy="1157.826" rx="250.41" ry="251.686"/>
	<linearGradient id="SVGID_4_" gradientUnits="userSpaceOnUse" x1="1477.7383" y1="1163.1455" x2="3223.8062" y2="835.7563">
		<stop  offset="0" style="stop-color:#D7E7F7"/>
		<stop  offset="0.1797" style="stop-color:#C2D4EB"/>
		<stop  offset="0.5515" style="stop-color:#8BA4CC"/>
		<stop  offset="0.9529" style="stop-color:#4A6AA6"/>
	</linearGradient>
	<path clip-path="url(#SVGID_2_)" fill="url(#SVGID_4_)" d="M2850.002,847.791c-5.567-4.208-62.824-126.328-67.065-130.298
		c-4.241-3.971-57.982-120.489-57.982-120.489l-119.766-64.886l-261.902,278.641l-82.219-121.995l-55.133-42.649l-72.051,153.497
		l-124.798,35.938l-116.142,86.421l-37.718,108.01l-81.96,252.291L2850,1325.475"/>
	
		<linearGradient id="SVGID_5_" gradientUnits="userSpaceOnUse" x1="-1499.0161" y1="1224.5889" x2="709.8762" y2="810.4198" gradientTransform="matrix(-1 0 0 1 174.2119 0)">
		<stop  offset="0" style="stop-color:#D7E7F7"/>
		<stop  offset="0.1797" style="stop-color:#C2D4EB"/>
		<stop  offset="0.5515" style="stop-color:#8BA4CC"/>
		<stop  offset="0.9529" style="stop-color:#4A6AA6"/>
	</linearGradient>
	<path clip-path="url(#SVGID_2_)" fill="url(#SVGID_5_)" d="M286.785,1410.731l1049.022-43.204l-87.361-252.29l-66.641-196.479
		l-58.089-39.998l-91.212,50.066l17.599-43.958l-122.13-182.567l-110.283,12.262l-70.314,114.282L584.467,617.076l-164.394,65.185
		c0,0-57.283,116.518-61.804,120.488l-87.763-287.275l-63.281,48.504c0,0-27.854,89.951-31.309,87.821
		c-7.921-4.883-100.941-64.593-100.941-64.593L0.003,677.413"/>
	<linearGradient id="SVGID_6_" gradientUnits="userSpaceOnUse" x1="0.1616" y1="972.271" x2="1357.3696" y2="935.5133">
		<stop  offset="0.035" style="stop-color:#1C306B"/>
		<stop  offset="0.7637" style="stop-color:#1BA0D1"/>
	</linearGradient>
	<path clip-path="url(#SVGID_2_)" fill="url(#SVGID_6_)" d="M1007.466,1229.071c6.337,48.327,12.201,96.687,17.803,145.069
		L0.003,1403.367L0.001,631.996l43.092,74.6l69.98-44.76l126.623,92.714l15.424-92.714l79.61-129.718l219.134,324.689l80.358-74.572
		l105.772,110.084L863.589,754.55l167.713,154.886l29.934,93.144h50.439l190.234,282.444"/>
	<linearGradient id="SVGID_7_" gradientUnits="userSpaceOnUse" x1="2838.5586" y1="993.041" x2="1713.1964" y2="970.4211">
		<stop  offset="0.035" style="stop-color:#1C306B"/>
		<stop  offset="0.7637" style="stop-color:#2FA9D6"/>
	</linearGradient>
	<path clip-path="url(#SVGID_2_)" fill="url(#SVGID_7_)" d="M2180.873,822.576l41.479-32.799l90.787,100.173l114.938-122.095
		l111.346-235.738l101.826,68.838l208.754,267.598c-12.434,62.289,7.769,498.211-0.002,559.124
		c-11.224,87.999-189.419-146.061-201.031-58.115c-6.904,52.301,6.082-52.359,0,0l-796.558-22.706l-29.308-97.202l118.279-261.606
		l146.133-232.044L2180.873,822.576z"/>
	<polyline opacity="0.12" clip-path="url(#SVGID_2_)" fill="#FFFFFF" points="2539.421,532.118 2505.758,788.223 2561.677,1069.985 
		2460.602,1280.161 2313.139,889.95 2428.076,767.855 	"/>
	<polyline opacity="0.12" clip-path="url(#SVGID_2_)" fill="#FFFFFF" points="335.128,532.118 363.42,747.359 437.528,783.327 
		314.908,828.601 298.981,897.003 430.46,939.631 368.254,945.315 371.083,1043.361 315.946,1236.148 530.296,1280.161 
		620.338,957.421 	"/>
	<polyline opacity="0.12" clip-path="url(#SVGID_2_)" fill="#FFFFFF" points="1301.91,1285.024 1043.08,1385.917 840.395,1296.665 
		931.949,927.829 863.589,754.55 1031.303,909.437 1061.236,1002.58 1111.676,1002.58 	"/>
	<g clip-path="url(#SVGID_2_)">
		<linearGradient id="SVGID_8_" gradientUnits="userSpaceOnUse" x1="-413.3887" y1="1192.5762" x2="2436.616" y2="1115.3887">
			<stop  offset="0.035" style="stop-color:#1C306B"/>
			<stop  offset="0.7637" style="stop-color:#1BA0D1"/>
		</linearGradient>
		<polygon fill="url(#SVGID_8_)" points="447.383,1117.961 418.624,1219.786 447.383,1219.786 476.142,1219.786 		"/>
		<linearGradient id="SVGID_9_" gradientUnits="userSpaceOnUse" x1="-312.4458" y1="1191.5322" x2="2537.5588" y2="1114.3447">
			<stop  offset="0.035" style="stop-color:#1C306B"/>
			<stop  offset="0.7637" style="stop-color:#1BA0D1"/>
		</linearGradient>
		<polygon fill="url(#SVGID_9_)" points="548.326,1116.918 519.567,1218.743 548.326,1218.743 577.085,1218.743 		"/>
		<linearGradient id="SVGID_10_" gradientUnits="userSpaceOnUse" x1="54.6392" y1="1186.1494" x2="2257.3818" y2="1126.4918">
			<stop  offset="0.035" style="stop-color:#1C306B"/>
			<stop  offset="0.7637" style="stop-color:#1BA0D1"/>
		</linearGradient>
		<polygon fill="url(#SVGID_10_)" points="719.921,1128.481 697.693,1207.181 719.921,1207.181 742.149,1207.181 		"/>
		<linearGradient id="SVGID_11_" gradientUnits="userSpaceOnUse" x1="-638.8145" y1="1197.5928" x2="2814.5237" y2="1104.0649">
			<stop  offset="0.035" style="stop-color:#1C306B"/>
			<stop  offset="0.7637" style="stop-color:#1BA0D1"/>
		</linearGradient>
		<polygon fill="url(#SVGID_11_)" points="404.179,1107.183 369.331,1230.564 404.179,1230.564 439.025,1230.564 		"/>
		<linearGradient id="SVGID_12_" gradientUnits="userSpaceOnUse" x1="-883.4292" y1="1237.458" x2="2569.9089" y2="1143.9302">
			<stop  offset="0.055" style="stop-color:#1C306B"/>
			<stop  offset="0.2984" style="stop-color:#1C306B"/>
		</linearGradient>
		<polygon fill="url(#SVGID_12_)" points="159.563,1147.048 124.715,1270.429 159.563,1270.429 194.41,1270.429 		"/>
		<linearGradient id="SVGID_13_" gradientUnits="userSpaceOnUse" x1="-464.2344" y1="1250.9717" x2="1716.532" y2="1191.9093">
			<stop  offset="0.055" style="stop-color:#1C306B"/>
			<stop  offset="0.2984" style="stop-color:#1C306B"/>
		</linearGradient>
		<polygon fill="url(#SVGID_13_)" points="194.41,1193.879 172.405,1271.793 194.41,1271.793 216.417,1271.793 		"/>
		<linearGradient id="SVGID_14_" gradientUnits="userSpaceOnUse" x1="-566.3003" y1="1267.1953" x2="1614.4661" y2="1208.1329">
			<stop  offset="0.055" style="stop-color:#1C306B"/>
			<stop  offset="0.2984" style="stop-color:#1C306B"/>
		</linearGradient>
		<polygon fill="url(#SVGID_14_)" points="92.345,1210.103 70.338,1288.017 92.345,1288.017 114.35,1288.017 		"/>
		<linearGradient id="SVGID_15_" gradientUnits="userSpaceOnUse" x1="249.3086" y1="1187.708" x2="2452.0271" y2="1128.0511">
			<stop  offset="0" style="stop-color:#1B72A7"/>
			<stop  offset="0.7637" style="stop-color:#1BA0D1"/>
		</linearGradient>
		<polygon fill="url(#SVGID_15_)" points="914.583,1130.039 892.356,1208.738 914.583,1208.738 936.811,1208.738 		"/>
		<linearGradient id="SVGID_16_" gradientUnits="userSpaceOnUse" x1="489.7939" y1="1215.4951" x2="2692.5366" y2="1155.8375">
			<stop  offset="0" style="stop-color:#1B72A7"/>
			<stop  offset="0.7637" style="stop-color:#1BA0D1"/>
		</linearGradient>
		<polygon fill="url(#SVGID_16_)" points="1155.076,1157.826 1132.848,1236.525 1155.076,1236.525 1177.303,1236.525 		"/>
		<linearGradient id="SVGID_17_" gradientUnits="userSpaceOnUse" x1="765.9624" y1="1267.3789" x2="2968.657" y2="1207.7227">
			<stop  offset="0" style="stop-color:#1B72A7"/>
			<stop  offset="0.7637" style="stop-color:#1BA0D1"/>
		</linearGradient>
		<polygon fill="url(#SVGID_17_)" points="1431.23,1209.71 1409.002,1288.409 1431.23,1288.409 1453.457,1288.409 		"/>
		<linearGradient id="SVGID_18_" gradientUnits="userSpaceOnUse" x1="602.772" y1="1269.8857" x2="3505.9749" y2="1191.2574">
			<stop  offset="0" style="stop-color:#1B72A7"/>
			<stop  offset="0.7637" style="stop-color:#1BA0D1"/>
		</linearGradient>
		<polygon fill="url(#SVGID_18_)" points="1479.609,1193.879 1450.314,1297.604 1479.609,1297.604 1508.906,1297.604 		"/>
		<linearGradient id="SVGID_19_" gradientUnits="userSpaceOnUse" x1="106.4946" y1="1191.0488" x2="2898.146" y2="1115.4417">
			<stop  offset="0" style="stop-color:#1B72A7"/>
			<stop  offset="0.7637" style="stop-color:#1BA0D1"/>
		</linearGradient>
		<polygon fill="url(#SVGID_19_)" points="949.642,1117.961 921.471,1217.701 949.642,1217.701 977.812,1217.701 		"/>
	</g>
	<linearGradient id="SVGID_20_" gradientUnits="userSpaceOnUse" x1="844.9043" y1="936.7568" x2="772.4088" y2="1529.5114">
		<stop  offset="0.0446" style="stop-color:#B3D3F8"/>
		<stop  offset="0.1896" style="stop-color:#9EC9F0"/>
		<stop  offset="0.49" style="stop-color:#67AFDA"/>
		<stop  offset="0.9169" style="stop-color:#1087B8"/>
		<stop  offset="0.9229" style="stop-color:#0F86B8"/>
	</linearGradient>
	<path clip-path="url(#SVGID_2_)" fill="url(#SVGID_20_)" d="M1589.255,1302.34c0,0-911.335-244.037-1589.255,0v359.135
		l1576.272-161.988"/>
	<path opacity="0.1" clip-path="url(#SVGID_2_)" fill="#36649F" d="M382.253,1213.777
		c-130.529,16.565-260.178,44.618-382.252,88.562v295.391C77.681,1416.112,218.543,1299.795,382.253,1213.777z"/>
	<path opacity="0.1" clip-path="url(#SVGID_2_)" fill="#36649F" d="M1191.042,1227.368c-103.629,5.131-208.855,5.154-310.673,24.192
		c-267.687,66.496-514.831,182.566-708.195,386.19c-2.336,2.461-4.719,4.698-7.137,6.763l1411.235-145.027l12.982-197.146
		C1589.255,1302.34,1428.145,1259.224,1191.042,1227.368z"/>
	<g clip-path="url(#SVGID_2_)">
		<g>
			<path fill="#4A83CF" d="M1105.866,1202.019c3.195-10.853,8.424-10.853,11.619,0l22.885,77.723l-21.472,0.85l23.104,4.696
				l21.082,71.596l-15.299,0.075l16.975,5.62l2.037,6.916l-36.615,0.47l38.782,9.227l12.732,40.908
				c3.195,10.852-3.048,22.273-13.874,25.383l-36.463,10.471c-10.826,3.109-28.542,3.109-39.368,0l-36.462-10.471
				c-10.826-3.109-17.07-14.531-13.875-25.383l9.538-26.384l29.64-6.653l-27.961-0.463l17.88-60.517l29.991-9.051l-28.746,0.017
				l12.85-43.641l15.896-3.554l-14.482-1.25l2.888-9.804l9.889-1.951l-9.128-0.635L1105.866,1202.019z"/>
		</g>
		<g opacity="0.07">
			<path d="M1181.696,1420.098l-12.732-40.907l-38.782-9.227l36.615-0.47l-2.036-6.916l-16.975-5.62l15.298-0.075l-21.081-71.596
				l-23.105-4.696l21.472-0.851l-22.885-77.723c-1.747-5.937-4.102-8.506-6.4-7.947v264.198c7.333,0.043,14.711-0.719,20.274-2.315
				l36.463-10.472C1178.648,1442.373,1184.893,1430.949,1181.696,1420.098z"/>
		</g>
	</g>
	<g clip-path="url(#SVGID_2_)">
		<g>
			<path fill="#4274B8" d="M1307.944,1149.57c3.763-12.779,9.92-12.779,13.684,0l26.952,91.536l-25.289,1.001l27.212,5.531
				l24.828,84.319l-18.018,0.089l19.993,6.619l2.398,8.145l-43.122,0.553l45.674,10.866l14.996,48.179
				c3.763,12.78-3.59,26.232-16.341,29.894l-42.942,12.332c-12.75,3.661-33.614,3.661-46.364,0l-42.943-12.332
				c-12.75-3.661-20.103-17.113-16.34-29.894l11.232-31.072l34.908-7.836l-32.931-0.546l21.059-71.271l35.321-10.658l-33.854,0.019
				l15.134-51.396l18.721-4.184l-17.056-1.474l3.399-11.546l11.647-2.297l-10.75-0.749L1307.944,1149.57z"/>
		</g>
		<g opacity="0.07">
			<path d="M1397.25,1406.406l-14.995-48.177l-45.674-10.867l43.122-0.553l-2.397-8.144l-19.991-6.62l18.016-0.089l-24.828-84.319
				l-27.211-5.53l25.288-1.002l-26.952-91.535c-2.057-6.991-4.83-10.018-7.538-9.359v311.149c8.635,0.053,17.325-0.846,23.877-2.727
				l42.944-12.332C1393.661,1432.641,1401.015,1419.187,1397.25,1406.406z"/>
		</g>
	</g>
	<g clip-path="url(#SVGID_2_)">
		<g>
			<path fill="#4A83CF" d="M911.639,1244.386c2.867-10.982,7.558-10.982,10.425,0l20.533,78.662l-19.266,0.86l20.731,4.753
				l18.914,72.462l-13.727,0.076l15.23,5.688l1.827,6.998l-32.852,0.476l34.797,9.338l11.424,41.402
				c2.866,10.983-2.735,22.543-12.449,25.689l-32.715,10.598c-9.714,3.146-25.608,3.146-35.323,0l-32.715-10.598
				c-9.713-3.146-15.315-14.706-12.449-25.689l8.557-26.701l26.594-6.734l-25.088-0.47l16.043-61.247l26.91-9.159l-25.792,0.016
				l11.528-44.168l14.263-3.596l-12.993-1.266l2.589-9.923l8.874-1.974l-8.191-0.644L911.639,1244.386z"/>
		</g>
		<g opacity="0.07">
			<path d="M979.677,1465.101l-11.424-41.401l-34.797-9.339l32.852-0.476l-1.826-6.998l-15.23-5.688l13.726-0.076l-18.914-72.462
				l-20.731-4.752l19.266-0.861l-20.533-78.662c-1.568-6.008-3.681-8.608-5.743-8.043v267.391c6.579,0.045,13.2-0.728,18.19-2.344
				l32.716-10.597C976.942,1487.646,982.544,1476.084,979.677,1465.101z"/>
		</g>
	</g>
	<g clip-path="url(#SVGID_2_)">
		<g>
			<path fill="#4579BF" d="M793.8,1278.186c2.537-9.964,6.688-9.964,9.226,0l18.172,71.362l-17.05,0.78l18.346,4.312l16.739,65.736
				l-12.148,0.068l13.479,5.16l1.617,6.35l-29.074,0.431l30.795,8.472l10.11,37.561c2.537,9.963-2.421,20.45-11.017,23.305
				l-28.953,9.614c-8.596,2.854-22.664,2.854-31.26,0l-28.953-9.614c-8.597-2.854-13.554-13.342-11.017-23.305l7.573-24.224
				l23.535-6.11l-22.202-0.425l14.198-55.563l23.814-8.31l-22.825,0.016l10.203-40.069l12.623-3.263l-11.5-1.148l2.293-9.002
				l7.852-1.791l-7.249-0.583L793.8,1278.186z"/>
		</g>
		<g opacity="0.07">
			<path d="M854.012,1478.417l-10.109-37.559l-30.795-8.474l29.074-0.431l-1.617-6.349l-13.479-5.16l12.147-0.069l-16.739-65.736
				l-18.347-4.312l17.05-0.781l-18.172-71.361c-1.387-5.451-3.256-7.81-5.082-7.297v242.574c5.823,0.041,11.681-0.659,16.098-2.126
				l28.954-9.614C851.592,1498.868,856.55,1488.38,854.012,1478.417z"/>
		</g>
	</g>
	<g clip-path="url(#SVGID_2_)">
		<g>
			<path fill="#4274B8" d="M956.008,1264.624c2.537-8.617,6.688-8.617,9.226,0l18.171,61.716l-17.05,0.675l18.347,3.729
				l16.739,56.852l-12.148,0.06l13.479,4.462l1.617,5.492l-29.074,0.372l30.795,7.326l10.11,32.483
				c2.537,8.616-2.42,17.687-11.017,20.155l-28.953,8.314c-8.596,2.468-22.664,2.468-31.26,0l-28.953-8.314
				c-8.596-2.469-13.554-11.539-11.017-20.155l7.573-20.95l23.536-5.283l-22.202-0.367l14.198-48.054l23.814-7.187l-22.825,0.014
				l10.203-34.652l12.622-2.822l-11.499-0.992l2.292-7.785l7.853-1.549l-7.248-0.505L956.008,1264.624z"/>
		</g>
		<g opacity="0.07">
			<path d="M1016.22,1437.789l-10.11-32.482l-30.794-7.327l29.073-0.372l-1.616-5.491l-13.479-4.463l12.147-0.06l-16.739-56.851
				l-18.346-3.729l17.049-0.676l-18.171-61.716c-1.387-4.713-3.257-6.753-5.082-6.31v209.784c5.822,0.036,11.682-0.569,16.098-1.838
				l28.954-8.314C1013.8,1455.477,1018.758,1446.405,1016.22,1437.789z"/>
		</g>
	</g>
	<g clip-path="url(#SVGID_2_)">
		<g>
			<path fill="#3D6CAA" d="M1013.018,1222.307c3.763-12.779,9.92-12.779,13.683,0l26.953,91.536l-25.289,1.001l27.212,5.531
				l24.827,84.319l-18.018,0.089l19.993,6.618l2.398,8.145l-43.122,0.554l45.674,10.866l14.996,48.179
				c3.763,12.78-3.59,26.231-16.34,29.894l-42.943,12.331c-12.75,3.662-33.614,3.662-46.364,0l-42.943-12.331
				c-12.75-3.662-20.103-17.113-16.34-29.894l11.232-31.072l34.908-7.837l-32.931-0.545l21.059-71.271l35.321-10.658l-33.854,0.02
				l15.134-51.396l18.721-4.186l-17.056-1.472l3.4-11.548l11.646-2.297l-10.75-0.748L1013.018,1222.307z"/>
		</g>
		<g opacity="0.07">
			<path d="M1102.323,1479.143l-14.995-48.177l-45.674-10.867l43.122-0.554l-2.397-8.144l-19.991-6.619l18.016-0.088l-24.826-84.32
				l-27.212-5.53l25.288-1.002l-26.953-91.536c-2.057-6.991-4.83-10.017-7.537-9.358v311.149c8.635,0.052,17.326-0.846,23.877-2.728
				l42.944-12.331C1098.734,1505.377,1106.088,1491.924,1102.323,1479.143z"/>
		</g>
	</g>
	<g clip-path="url(#SVGID_2_)">
		<g>
			<path fill="#3D6CAA" d="M1190.394,1233.131c3.195-10.852,8.424-10.852,11.618,0l22.885,77.723l-21.472,0.851l23.105,4.696
				l21.081,71.597l-15.298,0.075l16.975,5.62l2.036,6.915l-36.615,0.47l38.782,9.227l12.733,40.908
				c3.194,10.852-3.049,22.274-13.875,25.383l-36.463,10.471c-10.826,3.108-28.542,3.108-39.368,0l-36.462-10.471
				c-10.826-3.108-17.07-14.531-13.875-25.383l9.538-26.384l29.639-6.653l-27.96-0.463l17.88-60.518l29.992-9.05l-28.746,0.017
				l12.85-43.641l15.896-3.553l-14.482-1.251l2.887-9.805l9.89-1.95l-9.129-0.636L1190.394,1233.131z"/>
		</g>
		<g opacity="0.07">
			<path d="M1266.224,1451.211l-12.732-40.907l-38.782-9.228l36.615-0.47l-2.036-6.914l-16.974-5.621l15.297-0.075l-21.081-71.596
				l-23.105-4.696l21.472-0.851l-22.885-77.724c-1.746-5.936-4.101-8.505-6.399-7.946v264.197
				c7.332,0.045,14.711-0.719,20.273-2.315l36.464-10.47C1263.176,1473.486,1269.42,1462.062,1266.224,1451.211z"/>
		</g>
	</g>
	<linearGradient id="SVGID_21_" gradientUnits="userSpaceOnUse" x1="1672.21" y1="1212.1982" x2="3874.8804" y2="1152.5426">
		<stop  offset="0.035" style="stop-color:#1C306B"/>
		<stop  offset="0.7637" style="stop-color:#1BA0D1"/>
	</linearGradient>
	<polygon clip-path="url(#SVGID_2_)" fill="url(#SVGID_21_)" points="2337.47,1154.529 2315.243,1233.229 2337.47,1233.229 
		2359.697,1233.229 	"/>
	<linearGradient id="SVGID_22_" gradientUnits="userSpaceOnUse" x1="1764.0742" y1="1215.4961" x2="3966.8411" y2="1155.8379">
		<stop  offset="0.035" style="stop-color:#1C306B"/>
		<stop  offset="0.7637" style="stop-color:#1BA0D1"/>
	</linearGradient>
	<polygon clip-path="url(#SVGID_2_)" fill="url(#SVGID_22_)" points="2429.363,1157.826 2407.136,1236.525 2429.363,1236.525 
		2451.591,1236.525 	"/>
	<linearGradient id="SVGID_23_" gradientUnits="userSpaceOnUse" x1="1612.0068" y1="1195.0967" x2="4097.0293" y2="1127.7941">
		<stop  offset="0.035" style="stop-color:#1C306B"/>
		<stop  offset="0.7637" style="stop-color:#1BA0D1"/>
	</linearGradient>
	<polygon clip-path="url(#SVGID_2_)" fill="url(#SVGID_23_)" points="2362.545,1130.039 2337.47,1218.822 2362.545,1218.822 
		2387.621,1218.822 	"/>
	<linearGradient id="SVGID_24_" gradientUnits="userSpaceOnUse" x1="1302.854" y1="1214.5176" x2="5614.8677" y2="1097.734">
		<stop  offset="0.055" style="stop-color:#1C306B"/>
		<stop  offset="0.2984" style="stop-color:#1C306B"/>
	</linearGradient>
	<polygon clip-path="url(#SVGID_2_)" fill="url(#SVGID_24_)" points="2605.188,1101.626 2561.677,1255.686 2605.188,1255.686 
		2648.7,1255.686 	"/>
	<linearGradient id="SVGID_25_" gradientUnits="userSpaceOnUse" x1="1757.9951" y1="1242.6826" x2="4714.3481" y2="1162.6147">
		<stop  offset="0.055" style="stop-color:#1C306B"/>
		<stop  offset="0.2984" style="stop-color:#1C306B"/>
	</linearGradient>
	<polygon clip-path="url(#SVGID_2_)" fill="url(#SVGID_25_)" points="2650.887,1165.283 2621.055,1270.909 2650.887,1270.909 
		2680.719,1270.909 	"/>
	<linearGradient id="SVGID_26_" gradientUnits="userSpaceOnUse" x1="1676.5762" y1="1227.9238" x2="5035.5225" y2="1136.9524">
		<stop  offset="0.055" style="stop-color:#1C306B"/>
		<stop  offset="0.2984" style="stop-color:#1C306B"/>
	</linearGradient>
	<polygon clip-path="url(#SVGID_2_)" fill="url(#SVGID_26_)" points="2691.06,1139.985 2657.165,1259.993 2691.06,1259.993 
		2724.954,1259.993 	"/>
	<polyline opacity="0.12" clip-path="url(#SVGID_2_)" fill="#FFFFFF" points="2087.516,756.003 2055.563,875.867 2087.375,918.758 
		2019.513,958.104 2127.633,1046.569 2057.684,1236.267 1819.216,1258.254 1941.383,988.047 	"/>
	<linearGradient id="SVGID_27_" gradientUnits="userSpaceOnUse" x1="951.3789" y1="1250.2471" x2="3854.5334" y2="1171.62">
		<stop  offset="0" style="stop-color:#1B72A7"/>
		<stop  offset="0.7637" style="stop-color:#1BA0D1"/>
	</linearGradient>
	<polygon clip-path="url(#SVGID_2_)" fill="url(#SVGID_27_)" points="1828.202,1174.24 1798.906,1277.965 1828.202,1277.965 
		1857.497,1277.965 	"/>
	<linearGradient id="SVGID_28_" gradientUnits="userSpaceOnUse" x1="1190.4038" y1="1226.6562" x2="3534.5649" y2="1163.1686">
		<stop  offset="0" style="stop-color:#1B72A7"/>
		<stop  offset="0.7637" style="stop-color:#1BA0D1"/>
	</linearGradient>
	<polygon clip-path="url(#SVGID_2_)" fill="url(#SVGID_28_)" points="1898.397,1165.283 1874.743,1249.037 1898.397,1249.037 
		1922.053,1249.037 	"/>
	<g clip-path="url(#SVGID_2_)">
		<g>
			<path fill="#3D6CAA" d="M867.621,1316.362c2.867-9.736,7.558-9.736,10.425,0l20.533,69.736l-19.266,0.762l20.731,4.214
				l18.915,64.239l-13.727,0.067l15.231,5.043l1.826,6.204l-32.852,0.422l34.797,8.277l11.424,36.705
				c2.866,9.736-2.735,19.984-12.449,22.773l-32.715,9.396c-9.714,2.79-25.609,2.79-35.323,0l-32.715-9.396
				c-9.713-2.789-15.315-13.037-12.449-22.773l8.558-23.673l26.594-5.969l-25.088-0.416l16.043-54.298l26.91-8.12l-25.792,0.016
				l11.528-39.156l14.263-3.188l-12.993-1.122l2.589-8.797l8.874-1.75l-8.19-0.57L867.621,1316.362z"/>
		</g>
		<g opacity="0.07">
			<path d="M935.658,1512.031l-11.423-36.703l-34.797-8.279l32.852-0.422l-1.826-6.203l-15.23-5.043l13.726-0.068l-18.915-64.238
				l-20.73-4.213l19.265-0.764l-20.533-69.736c-1.568-5.326-3.68-7.631-5.743-7.13v237.048c6.579,0.039,13.199-0.645,18.19-2.078
				l32.716-9.395C932.924,1532.018,938.526,1521.768,935.658,1512.031z"/>
		</g>
	</g>
	<g clip-path="url(#SVGID_2_)">
		<g>
			<path fill="#4579BF" d="M537.588,1374.623c2.436-8.271,6.421-8.271,8.857,0l17.445,59.25l-16.369,0.647l17.614,3.58l16.07,54.579
				l-11.662,0.058l12.94,4.284l1.552,5.271l-27.912,0.358l29.564,7.034l9.707,31.184c2.436,8.272-2.324,16.98-10.577,19.351
				l-27.796,7.981c-8.252,2.37-21.757,2.37-30.011,0l-27.795-7.981c-8.253-2.37-13.013-11.078-10.577-19.351l7.271-20.111
				l22.595-5.073l-21.315-0.353l13.631-46.133l22.863-6.899l-21.914,0.013l9.795-33.268l12.118-2.71l-11.04-0.953l2.2-7.474
				l7.54-1.486l-6.958-0.484L537.588,1374.623z"/>
		</g>
		<g opacity="0.07">
			<path d="M595.395,1540.869l-9.706-31.184l-29.564-7.035l27.912-0.357l-1.551-5.271l-12.941-4.284l11.662-0.058l-16.07-54.58
				l-17.613-3.579l16.368-0.648l-17.445-59.249c-1.332-4.525-3.126-6.484-4.879-6.059v201.402c5.59,0.034,11.214-0.547,15.455-1.765
				l27.797-7.982C593.071,1557.851,597.831,1549.142,595.395,1540.869z"/>
		</g>
	</g>
	<g clip-path="url(#SVGID_2_)">
		<g>
			<path fill="#3D6CAA" d="M718.506,1279.195c3.33-11.311,8.779-11.311,12.109,0l23.852,81.009l-22.379,0.886l24.082,4.895
				l21.971,74.623l-15.944,0.077l17.692,5.858l2.123,7.208l-38.163,0.489l40.421,9.617l13.271,42.637
				c3.329,11.31-3.178,23.215-14.462,26.455l-38.003,10.914c-11.283,3.24-29.748,3.24-41.031,0l-38.004-10.914
				c-11.284-3.24-17.792-15.146-14.461-26.455l9.941-27.499l30.892-6.935l-29.142-0.482l18.636-63.075l31.259-9.432l-29.961,0.017
				l13.393-45.485l16.568-3.703l-15.094-1.304l3.009-10.219l10.308-2.033l-9.514-0.662L718.506,1279.195z"/>
		</g>
		<g opacity="0.07">
			<path d="M797.541,1506.493l-13.27-42.636l-40.421-9.618l38.162-0.489l-2.122-7.207l-17.692-5.858l15.944-0.078l-21.971-74.623
				l-24.082-4.894l22.379-0.887l-23.852-81.009c-1.821-6.187-4.275-8.864-6.67-8.282v275.364c7.642,0.046,15.333-0.748,21.131-2.413
				l38.005-10.913C794.364,1529.709,800.872,1517.804,797.541,1506.493z"/>
		</g>
	</g>
	<linearGradient id="SVGID_29_" gradientUnits="userSpaceOnUse" x1="1387.0986" y1="1158.0928" x2="1450.9825" y2="1970.033">
		<stop  offset="0.2341" style="stop-color:#B3D2FA"/>
		<stop  offset="0.3956" style="stop-color:#82B7E4"/>
		<stop  offset="0.5774" style="stop-color:#519CCD"/>
		<stop  offset="0.7375" style="stop-color:#2E88BD"/>
		<stop  offset="0.868" style="stop-color:#187CB4"/>
		<stop  offset="0.9525" style="stop-color:#1078B0"/>
	</linearGradient>
	<path clip-path="url(#SVGID_2_)" fill="url(#SVGID_29_)" d="M2850,1274.456c0,0-669.32-188.467-1425,79.654
		C828.615,1565.712,0,1571.929,0,1571.929v433.229h2850"/>
	<linearGradient id="SVGID_30_" gradientUnits="userSpaceOnUse" x1="2301.877" y1="915.623" x2="2553.9023" y2="1737.7056">
		<stop  offset="0" style="stop-color:#FFFFFF"/>
		<stop  offset="0.9996" style="stop-color:#003599"/>
	</linearGradient>
	<path opacity="0.3" clip-path="url(#SVGID_2_)" fill="url(#SVGID_30_)" d="M2850,1440.779v-166.323
		c0,0-379.74-106.838-890.043-45.054C2263.904,1251.51,2563.464,1330.006,2850,1440.779z"/>
	<linearGradient id="SVGID_31_" gradientUnits="userSpaceOnUse" x1="2685.8701" y1="1055.9385" x2="2749.7468" y2="1867.7856">
		<stop  offset="0" style="stop-color:#FFFFFF"/>
		<stop  offset="1" style="stop-color:#000000"/>
	</linearGradient>
	<path opacity="0.16" clip-path="url(#SVGID_2_)" fill="url(#SVGID_31_)" d="M2850,1847.107v-70.392
		c-73.723-33.28-147.924-65.466-222.46-96.865C2703.824,1732.703,2778.035,1788.487,2850,1847.107z"/>
	<linearGradient id="SVGID_32_" gradientUnits="userSpaceOnUse" x1="1724.0498" y1="1131.9023" x2="1787.9139" y2="1943.5913">
		<stop  offset="0" style="stop-color:#FFFFFF"/>
		<stop  offset="0.9996" style="stop-color:#003599"/>
	</linearGradient>
	<path opacity="0.2" clip-path="url(#SVGID_2_)" fill="url(#SVGID_32_)" d="M2790.513,2005.158
		c-161.445-135.68-335.626-255.284-519.335-359.267c-124.167-70.28-252.004-133.39-383.726-188.08
		c-101.354-42.082-206.869-81.611-315.067-104.89c-14.933-0.684-29.884-1.114-44.856-1.215
		c-18.628-0.124-33.831-5.516-45.766-14.156c-2.075-0.249-4.158-0.416-6.233-0.65c-16.801,5.534-33.633,11.214-50.528,17.209
		c-209.687,74.398-447.992,123.328-668.98,155.601c136.717,99.979,262.918,214.637,370.434,346
		c27.737,33.89,33.269,81.104,0,114.544c-28.673,28.818-86.294,33.805-113.962,0c-4.559-5.57-9.241-11.025-13.864-16.536
		c1.463,19.457-5.403,37.284-17.256,51.44H2790.513z"/>
	<linearGradient id="SVGID_33_" gradientUnits="userSpaceOnUse" x1="316.3608" y1="1243.3125" x2="380.2291" y2="2055.0532">
		<stop  offset="0" style="stop-color:#FFFFFF"/>
		<stop  offset="0.9996" style="stop-color:#003599"/>
	</linearGradient>
	<path opacity="0.9" clip-path="url(#SVGID_2_)" fill="url(#SVGID_33_)" d="M563.352,1698.602
		c8.707,35.182-15.026,128.76,23.983,113.276c40.636-16.13-10.23,86.911-56.282,99.633c-38.402,10.606-51.529-4.253-59.394-47.313
		c-24.276-132.918-49.777-193.168-117.853-309.845c-210.379,16.484-353.805,17.575-353.805,17.575v433.23h752.605
		C700.937,1886.568,640.384,1754.003,563.352,1698.602z"/>
	<g opacity="0.4" clip-path="url(#SVGID_2_)">
		<linearGradient id="SVGID_34_" gradientUnits="userSpaceOnUse" x1="1129.084" y1="1392.834" x2="1900.4757" y2="1988.9084">
			<stop  offset="0" style="stop-color:#5C77A2"/>
			<stop  offset="1" style="stop-color:#173E7D"/>
		</linearGradient>
		<path fill="url(#SVGID_34_)" d="M1561.458,1904.457l-315.768-220.049c-1.279-0.891-1.075-1.871,0.453-2.179l206.504-41.511
			c1.528-0.308,1.589-1.017,0.134-1.576l-445.362-171.258c-1.455-0.56-1.398-1.285,0.126-1.613l98.438-21.155
			c1.524-0.328,3.986-0.206,5.471,0.27l591.507,189.646c1.484,0.476,1.542,1.402,0.128,2.058l-160.266,74.346
			c-1.414,0.655-1.413,1.727,0.002,2.381l425.696,196.496"/>
	</g>
	<g opacity="0.4" clip-path="url(#SVGID_2_)">
		<linearGradient id="SVGID_35_" gradientUnits="userSpaceOnUse" x1="1115.8916" y1="1326.2178" x2="1974.7539" y2="1989.8831">
			<stop  offset="0" style="stop-color:#5C77A2"/>
			<stop  offset="1" style="stop-color:#173E7D"/>
		</linearGradient>
		<path fill="url(#SVGID_35_)" d="M1682.78,1628.632c0,0-451.926-145.11-575.03-184.111c-9.47,3.537,0.024,0.368-12.918,2.992
			c113.385,35.922,587.948,196.685,587.948,196.685c0.968,0.306,1.728,0.672,2.552,1.02
			C1695.683,1639.718,1694.812,1632.443,1682.78,1628.632z"/>
		<linearGradient id="SVGID_36_" gradientUnits="userSpaceOnUse" x1="1187.3179" y1="1378.0439" x2="1929.6096" y2="1951.6321">
			<stop  offset="0" style="stop-color:#5C77A2"/>
			<stop  offset="1" style="stop-color:#173E7D"/>
		</linearGradient>
		<path fill="url(#SVGID_36_)" d="M1562.155,1738.279l371.614,171.534l34.807,0.5l-406.421-187.599
			c-1.559-0.721-2.895-1.503-4.05-2.327C1550.351,1725.929,1551.688,1733.448,1562.155,1738.279z"/>
	</g>
	<path clip-path="url(#SVGID_2_)" fill="#264F8C" d="M0.003,2005.158v-192.12c0,0,826.249-122.214,1425,23.189
		c573.601,139.298,1424.999,63.416,1424.999,63.416v105.515H0.003z"/>
	<g opacity="0.47" clip-path="url(#SVGID_2_)">
		<path fill="#36649F" d="M2455.797,1643.877l-33.906-85.611l-59.772,15.652l56.551-20.653l-31.456-62.131l-33.952,0.539
			l30.662-5.672l-3.986-6.232l-102.94,14.191l95.826-22.901l-34.943-67.078c-6.233-9.779-42.488,23.654-70.332,21.313l-93.822-7.88
			c-27.861-2.34-67.197-1.643-87.393,1.55l-67.985,10.75c-20.175,3.194-19.885,13.604,0.632,23.135l53.783,23.097l73.873,4.751
			l-61.354,1.517l20.974,9.741l-71.006-5.839c-25.724-2.114-58.946-2.172-85.159-0.487c1.751,10.692,1.108,21.383-2.227,32.073
			c-5.149,15.516-10.906,30.793-17.933,45.577l73.122,4.568l-76.762,2.093c-0.127,0.205-0.232,0.423-0.36,0.626l147.113,67.646
			l99.263,8.629l-81.157,1.636l106.689,49.202l50.509,3.146l-38.777,2.268l23.946,11.056l30.99,1.658l-24.671,1.256l132.222,61.092
			c26.452,12.23,41.129,11.93,32.637-0.674l-60.606-90.257l-61.881,0.269l57.576-6.708l-55.453-83.132l-43.382,0.793l38.989-7.406
			l-5.34-8.028l-104.346,1.566l94.926-12.786l-3.867-6.209l34.512,16.079l39.464,2.531l-30.411,1.688l18.466,8.607l24.223,1.343
			l-19.351,0.928l101.999,47.584C2450.625,1653.867,2462.133,1653.658,2455.797,1643.877z M2247.121,1542.747l-2.095-3.373
			l32.082,2.844L2247.121,1542.747z"/>
		<path fill="#36649F" d="M1935.789,1672.646l-48.546-57.655l-35.137-0.621l31.68-3.493l-44.569-53.106l-24.506-0.05l20.969-4.174
			l-4.299-5.13l-58.994-0.336l51.875-6.856l-24.283-30.341c-6.726-8.048-29.174-16.517-49.895-18.818l-69.809-7.757
			c-20.732-2.305-49.098-2.3-63.028,0.009l-7.735,1.282c-1.588,12.49-6.822,18.438-13.123,29.086l23.789,15.804l54.662,4.929
			l-44.177,0.351l94.886,44.88l57.749,6.701h-45.862l68.286,32.362l29.21,2.63l-21.697,0.933l15.333,7.271l17.885,1.443
			l-13.84,0.476l84.707,40.188C1934.271,1680.698,1942.582,1680.695,1935.789,1672.646z"/>
	</g>
	<polygon opacity="0.24" clip-path="url(#SVGID_2_)" points="113.073,661.836 239.696,754.551 120.849,1178.351 163.043,879.839 
		140.642,862.19 176.385,783.327 149.316,762.369 	"/>
	<polygon opacity="0.24" clip-path="url(#SVGID_2_)" points="634.222,782.235 739.995,892.319 687.109,1072.357 687.109,979.418 
		704.727,924.357 670.301,875.867 	"/>
	<ellipse opacity="0.82" clip-path="url(#SVGID_2_)" fill="#FFFFFF" cx="1050.568" cy="411.121" rx="12.869" ry="12.936"/>
	<linearGradient id="SVGID_37_" gradientUnits="userSpaceOnUse" x1="894.2212" y1="385.7207" x2="1058.9927" y2="385.7207">
		<stop  offset="0" style="stop-color:#FFFFFF"/>
		<stop  offset="1" style="stop-color:#FFFFFF"/>
	</linearGradient>
	<polygon opacity="0.16" clip-path="url(#SVGID_2_)" fill="url(#SVGID_37_)" points="1042.183,422.45 894.221,348.991 
		1058.993,401.358 	"/>
	<ellipse opacity="0.82" clip-path="url(#SVGID_2_)" fill="#FFFFFF" cx="1184.155" cy="399.616" rx="17.151" ry="17.238"/>
	<linearGradient id="SVGID_38_" gradientUnits="userSpaceOnUse" x1="813.939" y1="329.3784" x2="1189.3584" y2="329.3784">
		<stop  offset="0" style="stop-color:#FFFFFF"/>
		<stop  offset="1" style="stop-color:#FFFFFF"/>
	</linearGradient>
	<polygon opacity="0.16" clip-path="url(#SVGID_2_)" fill="url(#SVGID_38_)" points="1172.549,409.347 813.939,249.41 
		1189.358,388.254 	"/>
	<g clip-path="url(#SVGID_2_)">
		<path fill="#346099" d="M2220.079,1043.221c5.197-17.652,13.703-17.652,18.9,0l37.226,126.433l-34.928,1.382l37.585,7.64
			l34.292,116.466l-24.886,0.121l27.614,9.143l3.312,11.25l-59.562,0.764l63.087,15.009l20.712,66.545
			c5.198,17.653-4.959,36.232-22.569,41.29l-59.313,17.034c-17.611,5.057-46.429,5.057-64.04,0l-59.312-17.034
			c-17.611-5.058-27.768-23.637-22.57-41.29l15.515-42.917l48.215-10.824l-45.483-0.753l29.085-98.443l48.787-14.721l-46.76,0.026
			l20.901-70.99l25.858-5.78l-23.558-2.034l4.696-15.949l16.088-3.172l-14.85-1.034L2220.079,1043.221z"/>
	</g>
	<g opacity="0.13" clip-path="url(#SVGID_2_)">
		<path fill="#FFFFFF" d="M2246.575,1069.06l-7.608-25.839c-5.197-17.652-13.702-17.652-18.899,0l-25.958,88.159l14.85,1.034
			l-16.088,3.172l-4.696,15.949l22.839,1.972l21.718-73.76C2236.46,1067.085,2241.885,1063.557,2246.575,1069.06z"/>
		<polyline fill="#FFFFFF" points="2206.773,1167.906 2210.943,1153.746 2185.873,1159.35 2164.971,1230.34 2188.395,1230.327 
			2198.539,1195.875 		"/>
		<line fill="#FFFFFF" x1="2200.84" y1="1188.062" x2="2205.535" y2="1172.112"/>
		<polyline fill="#FFFFFF" points="2175.61,1281.562 2186.124,1238.041 2162.945,1245.034 2133.86,1343.478 2157.202,1343.864 
			2175.61,1281.562 		"/>
		<path fill="#FFFFFF" d="M2146.523,1380.004l8.99-30.424l-24.385,5.475l-15.515,42.917c-4.116,13.979,1.492,28.431,12.712,36.396
			l15.467-42.788"/>
		<polygon fill="#FFFFFF" points="2211.014,1153.507 2210.943,1153.746 2211.732,1153.569 		"/>
	</g>
	<g clip-path="url(#SVGID_2_)">
		<path fill="#346099" d="M1682.547,1147.395c4.88-16.575,12.866-16.575,17.747,0l34.956,118.721l-32.799,1.299l35.293,7.173
			l32.201,109.362l-23.369,0.115l25.93,8.584l3.11,10.563l-55.928,0.717l59.238,14.094l19.449,62.487
			c4.881,16.575-4.656,34.022-21.193,38.771l-55.695,15.994c-16.537,4.748-43.598,4.748-60.134,0l-55.696-15.994
			c-16.537-4.749-26.073-22.196-21.192-38.771l14.567-40.301l45.274-10.163l-42.71-0.708l27.312-92.438l45.811-13.824l-43.909,0.024
			l19.628-66.659l24.281-5.429l-22.12-1.909l4.409-14.977l15.106-2.979l-13.943-0.972L1682.547,1147.395z"/>
	</g>
	<g opacity="0.31" clip-path="url(#SVGID_2_)">
		<path fill="#36649F" d="M1975.985,1396.674l17.919-0.03c24.291,24.408,18.351,46.862-13.27,50.153
			c-1.979,0.205-4.033,0.306-6.138,0.328c-0.3,0.107-0.494,0.281-0.804,0.382c-1.749-0.084-3.625-0.394-5.438-0.584
			c-13.938-0.986-30.11-5.554-46.364-12.729c-2.318,0.815-4.871,1.473-8.02,1.698c-6.036,0.433-13.02-0.354-20.491-2.137
			c-21.724-5.02-48.464-19.329-66.888-36.829h0.121c-0.406-0.376-0.885-0.727-1.282-1.104"/>
	</g>
	<g clip-path="url(#SVGID_2_)">
		<path fill="#3B6EB0" d="M1864.762,1358.501c5.672-2.521,11.907-3.943,18.471-3.943c3.424,0,6.697,0.54,9.899,1.29
			c8.94-9.692,20.578-16.666,33.724-19.444c1.648-0.443,3.235-1.039,4.93-1.354c0.419,0.081,0.799,0.265,1.216,0.354
			c2.167-0.233,4.364-0.37,6.593-0.37c8.188,0,15.988,1.644,23.195,4.524c-9.816-6.251-21.33-9.919-33.698-9.919
			c-2.229,0-4.426,0.137-6.594,0.37c-0.415-0.092-0.796-0.274-1.215-0.355c-1.694,0.315-3.281,0.911-4.929,1.355
			c-13.146,2.776-24.784,9.752-33.725,19.442c-3.202-0.749-6.476-1.29-9.899-1.29c-6.562,0-12.799,1.422-18.47,3.944
			c-16.627,6.904-28.402,23.684-28.402,43.376h0.12c-0.01,0.424-0.12,0.816-0.12,1.24l10.934,1.912
			C1838.356,1381.817,1849.354,1364.899,1864.762,1358.501z"/>
		<path fill="#346099" d="M1993.612,1396.482c0-24.104-12.355-45.164-30.823-56.924c-7.207-2.881-15.008-4.524-23.195-4.524
			c-2.229,0-4.426,0.137-6.593,0.37c-0.417-0.09-0.797-0.273-1.216-0.354c-1.694,0.314-3.281,0.91-4.93,1.354
			c-13.146,2.778-24.783,9.752-33.724,19.444c-3.202-0.75-6.476-1.29-9.899-1.29c-6.563,0-12.799,1.422-18.471,3.943
			c-15.408,6.398-31.88,22.362-33.445,40.179c0,0,38.926,7.473,83.828,7.473C1960.046,1406.152,1993.612,1396.482,1993.612,1396.482
			z"/>
	</g>
	<g opacity="0.31" clip-path="url(#SVGID_2_)">
		<path fill="#36649F" d="M1388.63,1438.796l-16.476-0.028c-22.337,22.446-16.875,43.095,12.202,46.12
			c1.819,0.189,3.709,0.282,5.645,0.303c0.276,0.099,0.455,0.258,0.739,0.351c1.608-0.077,3.333-0.361,5.001-0.536
			c12.817-0.908,27.688-5.107,42.637-11.706c2.13,0.75,4.478,1.354,7.373,1.562c5.551,0.397,11.973-0.327,18.843-1.966
			c19.977-4.615,44.566-17.773,61.509-33.867h-0.111c0.373-0.346,0.814-0.668,1.18-1.015"/>
	</g>
	<g clip-path="url(#SVGID_2_)">
		<path fill="#3B6EB0" d="M1490.909,1403.693c-5.215-2.319-10.949-3.627-16.984-3.627c-3.148,0-6.159,0.497-9.104,1.187
			c-8.222-8.913-18.923-15.326-31.012-17.88c-1.516-0.408-2.975-0.956-4.533-1.245c-0.385,0.074-0.734,0.242-1.117,0.325
			c-1.993-0.215-4.014-0.34-6.064-0.34c-7.529,0-14.703,1.511-21.33,4.16c9.028-5.747,19.615-9.121,30.988-9.121
			c2.051,0,4.071,0.126,6.064,0.34c0.383-0.083,0.732-0.252,1.117-0.326c1.559,0.29,3.018,0.837,4.532,1.246
			c12.09,2.554,22.791,8.967,31.013,17.879c2.944-0.688,5.955-1.187,9.104-1.187c6.035,0,11.769,1.309,16.984,3.628
			c15.29,6.349,26.118,21.778,26.118,39.887h-0.11c0.009,0.391,0.11,0.751,0.11,1.141l-10.055,1.758
			C1515.191,1425.134,1505.078,1409.576,1490.909,1403.693z"/>
		<path fill="#346099" d="M1372.422,1438.619c0-22.165,11.362-41.531,28.343-52.346c6.627-2.649,13.801-4.16,21.33-4.16
			c2.05,0,4.071,0.125,6.064,0.34c0.383-0.083,0.732-0.251,1.117-0.325c1.559,0.289,3.018,0.837,4.533,1.245
			c12.089,2.554,22.79,8.967,31.012,17.88c2.944-0.689,5.955-1.187,9.104-1.187c6.035,0,11.77,1.308,16.984,3.627
			c14.169,5.883,29.316,20.563,30.756,36.947c0,0-35.795,6.872-77.085,6.872C1403.289,1447.513,1372.422,1438.619,1372.422,1438.619
			z"/>
	</g>
	<g opacity="0.31" clip-path="url(#SVGID_2_)">
		<path fill="#36649F" d="M497.194,1623.853l-13.921-0.023c-18.874,18.964-14.258,36.411,10.31,38.968
			c1.537,0.16,3.133,0.237,4.769,0.256c0.232,0.082,0.385,0.218,0.625,0.295c1.359-0.064,2.816-0.305,4.225-0.452
			c10.83-0.768,23.395-4.315,36.024-9.891c1.8,0.634,3.784,1.144,6.229,1.318c4.69,0.336,10.116-0.275,15.921-1.659
			c16.879-3.9,37.655-15.019,51.97-28.615l-0.094-0.001c0.315-0.292,0.688-0.563,0.996-0.856"/>
	</g>
	<g clip-path="url(#SVGID_2_)">
		<path fill="#3B6EB0" d="M583.61,1594.193c-4.407-1.959-9.251-3.063-14.351-3.063c-2.66,0-5.203,0.42-7.691,1.002
			c-6.947-7.53-15.988-12.948-26.203-15.106c-1.281-0.346-2.513-0.808-3.83-1.052c-0.326,0.062-0.621,0.204-0.944,0.275
			c-1.684-0.182-3.391-0.288-5.123-0.288c-6.361,0-12.423,1.276-18.022,3.516c7.627-4.857,16.573-7.707,26.182-7.707
			c1.732,0,3.44,0.106,5.124,0.287c0.323-0.07,0.619-0.212,0.944-0.275c1.316,0.245,2.55,0.708,3.83,1.053
			c10.215,2.157,19.256,7.576,26.203,15.105c2.488-0.581,5.032-1.001,7.691-1.001c5.1,0,9.944,1.104,14.351,3.063
			c12.919,5.365,22.068,18.401,22.068,33.701h-0.094c0.008,0.33,0.094,0.635,0.094,0.965l-8.496,1.485
			C604.127,1612.31,595.583,1599.165,583.61,1594.193z"/>
		<path fill="#346099" d="M483.5,1623.703c0-18.727,9.6-35.09,23.948-44.227c5.599-2.239,11.661-3.516,18.022-3.516
			c1.732,0,3.439,0.106,5.123,0.288c0.323-0.071,0.619-0.214,0.944-0.275c1.316,0.244,2.549,0.706,3.83,1.052
			c10.215,2.158,19.255,7.576,26.203,15.106c2.488-0.582,5.031-1.002,7.691-1.002c5.1,0,9.944,1.104,14.351,3.063
			c11.972,4.972,24.771,17.375,25.987,31.218c0,0-30.244,5.806-65.131,5.806C509.579,1631.217,483.5,1623.703,483.5,1623.703z"/>
	</g>
	<g opacity="0.13" clip-path="url(#SVGID_2_)">
		<path fill="#FFFFFF" d="M1707.427,1171.657l-7.145-24.263c-4.881-16.575-12.866-16.575-17.747,0l-24.375,82.782l13.943,0.972
			l-15.106,2.979l-4.409,14.977l21.445,1.852l20.394-69.262C1697.928,1169.804,1703.022,1166.491,1707.427,1171.657z"/>
		<polyline fill="#FFFFFF" points="1670.053,1264.476 1673.969,1251.178 1650.428,1256.44 1630.8,1323.101 1652.795,1323.089 
			1662.32,1290.739 		"/>
		<line fill="#FFFFFF" x1="1664.48" y1="1283.402" x2="1668.89" y2="1268.426"/>
		<polyline fill="#FFFFFF" points="1640.79,1371.199 1650.662,1330.332 1628.897,1336.9 1601.586,1429.338 1623.504,1429.701 
			1640.79,1371.199 		"/>
		<path fill="#FFFFFF" d="M1613.477,1463.637l8.441-28.567l-22.896,5.14l-14.569,40.301c-3.864,13.127,1.401,26.695,11.937,34.176
			l14.524-40.178"/>
		<polygon fill="#FFFFFF" points="1674.033,1250.955 1673.969,1251.178 1674.709,1251.013 		"/>
	</g>
	<g opacity="0.47" clip-path="url(#SVGID_2_)">
		<path fill="#36649F" d="M160.698,1464.112l26.815-31.847l19.408-0.343l-17.499-1.929l24.618-29.334l13.536-0.028l-11.583-2.305
			l2.375-2.833l32.585-0.187l-28.653-3.786l13.413-16.76c3.714-4.445,16.115-9.123,27.56-10.395l38.56-4.284
			c11.452-1.272,27.119-1.271,34.814,0.005l4.273,0.708c0.877,6.899,3.768,10.184,7.248,16.065l-13.14,8.729l-30.193,2.723
			l24.401,0.193l-52.41,24.789l-31.898,3.702h25.333l-37.718,17.876l-16.136,1.452l11.985,0.516l-8.469,4.016l-9.878,0.797
			l7.644,0.263l-46.788,22.197C161.537,1468.56,156.946,1468.558,160.698,1464.112z"/>
	</g>
	<g clip-path="url(#SVGID_2_)">
		<path fill="#346099" d="M300.579,1173.986c-2.696-9.155-7.107-9.155-9.803,0l-19.308,65.576l18.116,0.718l-19.494,3.962
			l-17.786,60.406l12.908,0.063l-14.323,4.742l-1.718,5.835l30.893,0.396l-32.721,7.785l-10.742,34.515
			c-2.696,9.155,2.572,18.793,11.706,21.415l30.765,8.835c9.134,2.623,24.081,2.623,33.215,0l30.763-8.835
			c9.135-2.622,14.402-12.26,11.707-21.415l-8.046-22.26l-25.008-5.614l23.591-0.391l-15.086-51.059l-25.304-7.636l24.253,0.014
			l-10.841-36.82l-13.412-2.997l12.218-1.056l-2.436-8.272l-8.344-1.646l7.702-0.536L300.579,1173.986z"/>
	</g>
	<g opacity="0.13" clip-path="url(#SVGID_2_)">
		<path fill="#FFFFFF" d="M286.835,1187.388l3.946-13.401c2.696-9.155,7.107-9.155,9.803,0l13.463,45.726l-7.702,0.536l8.345,1.646
			l2.436,8.272l-11.846,1.022l-11.265-38.257C292.083,1186.364,289.268,1184.534,286.835,1187.388z"/>
		<polyline fill="#FFFFFF" points="307.479,1238.656 305.317,1231.312 318.319,1234.219 329.16,1271.039 317.012,1271.032 
			311.751,1253.164 		"/>
		<line fill="#FFFFFF" x1="310.558" y1="1249.111" x2="308.121" y2="1240.838"/>
		<polyline fill="#FFFFFF" points="323.643,1297.605 318.19,1275.033 330.211,1278.661 345.297,1329.72 333.19,1329.92 
			323.643,1297.605 		"/>
		<path fill="#FFFFFF" d="M338.729,1348.664l-4.662-15.779l12.647,2.84l8.047,22.26c2.135,7.251-0.774,14.746-6.593,18.877
			l-8.022-22.192"/>
		<polygon fill="#FFFFFF" points="305.28,1231.188 305.317,1231.312 304.907,1231.221 		"/>
	</g>
	<g opacity="0.47" clip-path="url(#SVGID_2_)">
		<path fill="#36649F" d="M498.095,1351.826l20.346-24.165l14.727-0.26l-13.277-1.464l18.679-22.258l10.271-0.021l-8.789-1.749
			l1.802-2.149l24.726-0.142l-21.741-2.873l10.177-12.717c2.819-3.372,12.228-6.923,20.912-7.888l29.258-3.251
			c8.689-0.966,20.579-0.963,26.417,0.005l3.242,0.537c0.665,5.235,2.859,7.728,5.5,12.189l-9.97,6.625l-22.911,2.065l18.516,0.146
			l-39.768,18.811l-24.204,2.809h19.222l-28.62,13.563l-12.244,1.102l9.094,0.391l-6.426,3.048l-7.496,0.604l5.801,0.2
			l-35.502,16.843C498.731,1355.2,495.249,1355.199,498.095,1351.826z"/>
	</g>
	<g clip-path="url(#SVGID_2_)">
		<path fill="#346099" d="M604.234,1131.683c-2.045-6.947-5.392-6.947-7.438,0l-14.651,49.759l13.747,0.544l-14.792,3.006
			l-13.496,45.836l9.794,0.049l-10.868,3.598l-1.304,4.428l23.441,0.3l-24.829,5.908l-8.151,26.188
			c-2.046,6.947,1.952,14.26,8.883,16.25l23.343,6.703c6.931,1.991,18.272,1.991,25.203,0l23.343-6.703
			c6.931-1.99,10.928-9.303,8.883-16.25l-6.106-16.891l-18.976-4.26l17.901-0.297l-11.447-38.742l-19.201-5.794l18.404,0.011
			l-8.227-27.938l-10.177-2.275l9.271-0.801l-1.849-6.276l-6.331-1.248l5.844-0.408L604.234,1131.683z"/>
	</g>
	<g opacity="0.13" clip-path="url(#SVGID_2_)">
		<path fill="#FFFFFF" d="M593.807,1141.852l2.994-10.169c2.045-6.947,5.392-6.947,7.438,0l10.215,34.695l-5.844,0.408l6.332,1.248
			l1.848,6.276l-8.989,0.776l-8.547-29.028C597.787,1141.075,595.652,1139.687,593.807,1141.852z"/>
		<polyline fill="#FFFFFF" points="609.47,1180.754 607.83,1175.181 617.696,1177.386 625.922,1205.325 616.703,1205.32 
			612.711,1191.762 		"/>
		<line fill="#FFFFFF" x1="611.806" y1="1188.686" x2="609.958" y2="1182.409"/>
		<polyline fill="#FFFFFF" points="621.735,1225.483 617.597,1208.355 626.719,1211.108 638.167,1249.851 628.98,1250.004 
			621.735,1225.483 		"/>
		<path fill="#FFFFFF" d="M633.182,1264.226l-3.537-11.973l9.596,2.154l6.105,16.891c1.62,5.502-0.587,11.188-5.002,14.323
			l-6.088-16.839"/>
		<polygon fill="#FFFFFF" points="607.802,1175.087 607.83,1175.181 607.519,1175.111 		"/>
	</g>
	<g clip-path="url(#SVGID_2_)">
		<path fill="#2D5385" d="M2041.665,1070.224c6.673-22.661,17.592-22.661,24.264,0l47.79,162.31l-44.841,1.774l48.251,9.808
			l44.022,149.515l-31.946,0.157l35.449,11.736l4.252,14.44l-76.463,0.981l80.989,19.268l26.589,85.429
			c6.673,22.661-6.366,46.514-28.975,53.006l-76.145,21.867c-22.607,6.492-59.604,6.492-82.211,0l-76.146-21.867
			c-22.607-6.492-35.646-30.345-28.974-53.006l19.916-55.097l61.897-13.895l-58.391-0.967l37.34-126.378l62.631-18.898l-60.03,0.034
			l26.834-91.135l33.196-7.421l-30.243-2.611l6.029-20.475l20.652-4.072l-19.062-1.327L2041.665,1070.224z"/>
	</g>
	<g opacity="0.13" clip-path="url(#SVGID_2_)">
		<path fill="#FFFFFF" d="M2075.681,1103.396l-9.768-33.172c-6.672-22.661-17.591-22.661-24.263,0l-33.324,113.177l19.063,1.327
			l-20.653,4.072l-6.028,20.475l29.319,2.532l27.881-94.691C2062.694,1100.861,2069.659,1096.332,2075.681,1103.396z"/>
		<polyline fill="#FFFFFF" points="2024.584,1230.291 2029.938,1212.112 1997.754,1219.307 1970.92,1310.441 2000.99,1310.425 
			2014.013,1266.198 		"/>
		<line fill="#FFFFFF" x1="2016.966" y1="1256.166" x2="2022.994" y2="1235.691"/>
		<polyline fill="#FFFFFF" points="1984.577,1376.197 1998.074,1320.328 1968.32,1329.306 1930.98,1455.684 1960.945,1456.18 
			1984.577,1376.197 		"/>
		<path fill="#FFFFFF" d="M1947.237,1502.574l11.54-39.057l-31.303,7.027l-19.918,55.097c-5.284,17.946,1.915,36.497,16.319,46.724
			l19.855-54.929"/>
		<polygon fill="#FFFFFF" points="2030.027,1211.807 2029.938,1212.112 2030.95,1211.886 		"/>
	</g>
	<polygon opacity="0.24" clip-path="url(#SVGID_2_)" points="2222.352,789.777 2180.873,822.576 2186.724,906.14 2193.476,967.742 
		2217.471,829.125 	"/>
	<g clip-path="url(#SVGID_2_)">
		<polygon fill="#264F8C" points="777.756,1610.334 725.581,1780.756 774.016,1781.823 822.45,1782.89 		"/>
		<polygon fill="#264F8C" points="947.798,1612.324 895.624,1782.745 944.058,1783.812 992.492,1784.879 		"/>
		<polygon fill="#264F8C" points="1236.364,1689.319 1196.04,1821.035 1233.474,1821.86 1270.908,1822.685 		"/>
		<polygon fill="#264F8C" points="705.39,1590.579 642.17,1797.078 700.858,1798.371 759.546,1799.665 		"/>
		<polygon fill="#264F8C" points="2364.229,1739.429 2301.01,1945.928 2359.697,1947.221 2418.386,1948.514 		"/>
		<polygon fill="#264F8C" points="291.958,1580.437 228.738,1786.935 287.427,1788.228 346.114,1789.521 		"/>
		<polygon fill="#264F8C" points="348.925,1660.601 309.003,1791.002 346.064,1791.818 383.125,1792.635 		"/>
		<polygon fill="#264F8C" points="176.436,1684.136 136.513,1814.538 173.574,1815.354 210.635,1816.17 		"/>
		<polygon fill="#264F8C" points="1564.146,1750.319 1523.821,1882.035 1561.256,1882.86 1598.69,1883.686 		"/>
		<polygon fill="#264F8C" points="1968.149,1797.515 1927.824,1929.23 1965.259,1930.055 2002.693,1930.88 		"/>
		<polygon fill="#264F8C" points="2727.844,1777.288 2687.52,1909.005 2724.954,1909.829 2762.389,1910.654 		"/>
		<polygon fill="#264F8C" points="2431.328,1792.832 2391.003,1924.549 2428.438,1925.373 2465.872,1926.199 		"/>
		<polygon fill="#264F8C" points="2513.389,1750.915 2460.24,1924.515 2509.579,1925.602 2558.916,1926.689 		"/>
		<polygon fill="#264F8C" points="1623.634,1731.279 1572.527,1898.211 1619.971,1899.256 1667.413,1900.301 		"/>
	</g>
	<g opacity="0.31" clip-path="url(#SVGID_2_)">
		<path fill="#36649F" d="M2739.679,1543.684l31.039-0.052c42.079,42.282,31.789,81.181-22.986,86.881
			c-3.427,0.356-6.987,0.529-10.632,0.569c-0.52,0.185-0.857,0.485-1.393,0.66c-3.031-0.146-6.278-0.68-9.422-1.011
			c-24.145-1.709-52.16-9.622-80.318-22.052c-4.014,1.413-8.436,2.552-13.891,2.942c-10.456,0.748-22.555-0.615-35.496-3.702
			c-37.633-8.694-83.955-33.484-115.87-63.799l0.21-0.001c-0.704-0.651-1.534-1.258-2.222-1.91"/>
	</g>
	<g clip-path="url(#SVGID_2_)">
		<path fill="#3766A3" d="M2547.006,1477.557c9.824-4.368,20.626-6.831,31.994-6.831c5.932,0,11.604,0.938,17.149,2.234
			c15.488-16.79,35.647-28.87,58.422-33.682c2.854-0.77,5.604-1.801,8.538-2.347c0.726,0.141,1.385,0.458,2.104,0.615
			c3.755-0.404,7.562-0.642,11.423-0.642c14.184,0,27.697,2.847,40.182,7.839c-17.006-10.829-36.95-17.184-58.376-17.184
			c-3.861,0-7.667,0.237-11.423,0.641c-0.72-0.158-1.379-0.476-2.104-0.615c-2.936,0.546-5.685,1.577-8.539,2.348
			c-22.774,4.81-42.934,16.893-58.422,33.681c-5.547-1.298-11.218-2.235-17.147-2.235c-11.369,0-22.172,2.464-31.996,6.834
			c-28.804,11.959-49.203,41.026-49.203,75.14h0.211c-0.019,0.733-0.211,1.414-0.211,2.148l18.941,3.312
			C2501.262,1517.948,2520.313,1488.641,2547.006,1477.557z"/>
		<path fill="#2D5385" d="M2770.213,1543.353c0-41.756-21.404-78.237-53.395-98.608c-12.484-4.992-25.998-7.839-40.182-7.839
			c-3.861,0-7.668,0.237-11.423,0.642c-0.72-0.157-1.379-0.475-2.104-0.615c-2.935,0.546-5.685,1.577-8.538,2.347
			c-22.774,4.812-42.934,16.892-58.422,33.682c-5.546-1.297-11.218-2.234-17.149-2.234c-11.368,0-22.17,2.463-31.994,6.831
			c-26.692,11.084-55.228,38.738-57.939,69.604c0,0,67.432,12.944,145.215,12.944
			C2712.065,1560.104,2770.213,1543.353,2770.213,1543.353z"/>
	</g>
</g>
</svg>
