<svg id="e30a93e9-ff50-4cbb-8b14-9d39224e305c" data-name="Layer 1" xmlns="http://www.w3.org/2000/svg" width="888" height="442.24956" viewBox="0 0 888 442.24956"><title>next_js</title><circle cx="190.00923" cy="79.90411" r="5.54965" fill="#e6e6e6"/><circle cx="218.10149" cy="79.90411" r="5.54965" fill="#e6e6e6"/><circle cx="246.19376" cy="79.90411" r="5.54965" fill="#e6e6e6"/><circle cx="274.28602" cy="79.90411" r="5.54965" fill="#e6e6e6"/><circle cx="302.37828" cy="79.90411" r="5.54965" fill="#e6e6e6"/><circle cx="330.47054" cy="79.90411" r="5.54965" fill="#e6e6e6"/><circle cx="358.5628" cy="79.90411" r="5.54965" fill="#e6e6e6"/><circle cx="386.65506" cy="79.90411" r="5.54965" fill="#e6e6e6"/><circle cx="414.74732" cy="79.90411" r="5.54965" fill="#e6e6e6"/><circle cx="442.83958" cy="79.90411" r="5.54965" fill="#e6e6e6"/><circle cx="470.93185" cy="79.90411" r="5.54965" fill="#e6e6e6"/><circle cx="499.02411" cy="79.90411" r="5.54965" fill="#e6e6e6"/><circle cx="527.11637" cy="79.90411" r="5.54965" fill="#e6e6e6"/><circle cx="555.20863" cy="79.90411" r="5.54965" fill="#e6e6e6"/><circle cx="583.30089" cy="79.90411" r="5.54965" fill="#e6e6e6"/><circle cx="611.39315" cy="79.90411" r="5.54965" fill="#e6e6e6"/><circle cx="639.48541" cy="79.90411" r="5.54965" fill="#e6e6e6"/><circle cx="667.57767" cy="79.90411" r="5.54965" fill="#e6e6e6"/><circle cx="695.66993" cy="79.90411" r="5.54965" fill="#e6e6e6"/><circle cx="723.7622" cy="79.90411" r="5.54965" fill="#e6e6e6"/><circle cx="751.85446" cy="79.90411" r="5.54965" fill="#e6e6e6"/><circle cx="779.94672" cy="79.90411" r="5.54965" fill="#e6e6e6"/><circle cx="190.00923" cy="108.34899" r="5.54965" fill="#e6e6e6"/><circle cx="218.10149" cy="108.34899" r="5.54965" fill="#e6e6e6"/><circle cx="246.19376" cy="108.34899" r="5.54965" fill="#e6e6e6"/><circle cx="274.28602" cy="108.34899" r="5.54965" fill="#e6e6e6"/><circle cx="302.37828" cy="108.34899" r="5.54965" fill="#e6e6e6"/><circle cx="330.47054" cy="108.34899" r="5.54965" fill="#e6e6e6"/><circle cx="358.5628" cy="108.34899" r="5.54965" fill="#e6e6e6"/><circle cx="386.65506" cy="108.34899" r="5.54965" fill="#e6e6e6"/><circle cx="414.74732" cy="108.34899" r="5.54965" fill="#e6e6e6"/><circle cx="442.83958" cy="108.34899" r="5.54965" fill="#e6e6e6"/><circle cx="470.93185" cy="108.34899" r="5.54965" fill="#e6e6e6"/><circle cx="499.02411" cy="108.34899" r="5.54965" fill="#e6e6e6"/><circle cx="527.11637" cy="108.34899" r="5.54965" fill="#e6e6e6"/><circle cx="555.20863" cy="108.34899" r="5.54965" fill="#e6e6e6"/><circle cx="583.30089" cy="108.34899" r="5.54965" fill="#e6e6e6"/><circle cx="611.39315" cy="108.34899" r="5.54965" fill="#e6e6e6"/><circle cx="639.48541" cy="108.34899" r="5.54965" fill="#e6e6e6"/><circle cx="667.57767" cy="108.34899" r="5.54965" fill="#e6e6e6"/><circle cx="695.66993" cy="108.34899" r="5.54965" fill="#e6e6e6"/><circle cx="723.7622" cy="108.34899" r="5.54965" fill="#e6e6e6"/><circle cx="751.85446" cy="108.34899" r="5.54965" fill="#e6e6e6"/><circle cx="779.94672" cy="108.34899" r="5.54965" fill="#e6e6e6"/><circle cx="190.00923" cy="136.79387" r="5.54965" fill="#e6e6e6"/><circle cx="218.10149" cy="136.79387" r="5.54965" fill="#e6e6e6"/><circle cx="246.19376" cy="136.79387" r="5.54965" fill="#e6e6e6"/><circle cx="274.28602" cy="136.79387" r="5.54965" fill="#e6e6e6"/><circle cx="302.37828" cy="136.79387" r="5.54965" fill="#e6e6e6"/><circle cx="330.47054" cy="136.79387" r="5.54965" fill="#e6e6e6"/><circle cx="358.5628" cy="136.79387" r="5.54965" fill="#e6e6e6"/><circle cx="386.65506" cy="136.79387" r="5.54965" fill="#e6e6e6"/><circle cx="414.74732" cy="136.79387" r="5.54965" fill="#e6e6e6"/><circle cx="442.83958" cy="136.79387" r="5.54965" fill="#e6e6e6"/><circle cx="470.93185" cy="136.79387" r="5.54965" fill="#e6e6e6"/><circle cx="499.02411" cy="136.79387" r="5.54965" fill="#e6e6e6"/><circle cx="527.11637" cy="136.79387" r="5.54965" fill="#e6e6e6"/><circle cx="555.20863" cy="136.79387" r="5.54965" fill="#e6e6e6"/><circle cx="583.30089" cy="136.79387" r="5.54965" fill="#e6e6e6"/><circle cx="611.39315" cy="136.79387" r="5.54965" fill="#e6e6e6"/><circle cx="639.48541" cy="136.79387" r="5.54965" fill="#e6e6e6"/><circle cx="667.57767" cy="136.79387" r="5.54965" fill="#e6e6e6"/><circle cx="695.66993" cy="136.79387" r="5.54965" fill="#e6e6e6"/><circle cx="723.7622" cy="136.79387" r="5.54965" fill="#e6e6e6"/><circle cx="751.85446" cy="136.79387" r="5.54965" fill="#e6e6e6"/><circle cx="779.94672" cy="136.79387" r="5.54965" fill="#e6e6e6"/><circle cx="190.00923" cy="165.23874" r="5.54965" fill="#e6e6e6"/><circle cx="218.10149" cy="165.23874" r="5.54965" fill="#e6e6e6"/><circle cx="246.19376" cy="165.23874" r="5.54965" fill="#e6e6e6"/><circle cx="274.28602" cy="165.23874" r="5.54965" fill="#e6e6e6"/><circle cx="302.37828" cy="165.23874" r="5.54965" fill="#e6e6e6"/><circle cx="330.47054" cy="165.23874" r="5.54965" fill="#e6e6e6"/><circle cx="358.5628" cy="165.23874" r="5.54965" fill="#e6e6e6"/><circle cx="386.65506" cy="165.23874" r="5.54965" fill="#e6e6e6"/><circle cx="414.74732" cy="165.23874" r="5.54965" fill="#e6e6e6"/><circle cx="442.83958" cy="165.23874" r="5.54965" fill="#e6e6e6"/><circle cx="470.93185" cy="165.23874" r="5.54965" fill="#e6e6e6"/><circle cx="499.02411" cy="165.23874" r="5.54965" fill="#e6e6e6"/><circle cx="527.11637" cy="165.23874" r="5.54965" fill="#e6e6e6"/><circle cx="555.20863" cy="165.23874" r="5.54965" fill="#e6e6e6"/><circle cx="583.30089" cy="165.23874" r="5.54965" fill="#e6e6e6"/><circle cx="611.39315" cy="165.23874" r="5.54965" fill="#e6e6e6"/><circle cx="639.48541" cy="165.23874" r="5.54965" fill="#e6e6e6"/><circle cx="667.57767" cy="165.23874" r="5.54965" fill="#e6e6e6"/><circle cx="695.66993" cy="165.23874" r="5.54965" fill="#e6e6e6"/><circle cx="723.7622" cy="165.23874" r="5.54965" fill="#e6e6e6"/><circle cx="751.85446" cy="165.23874" r="5.54965" fill="#e6e6e6"/><circle cx="779.94672" cy="165.23874" r="5.54965" fill="#e6e6e6"/><circle cx="190.00923" cy="193.68362" r="5.54965" fill="#e6e6e6"/><circle cx="218.10149" cy="193.68362" r="5.54965" fill="#e6e6e6"/><circle cx="246.19376" cy="193.68362" r="5.54965" fill="#e6e6e6"/><circle cx="274.28602" cy="193.68362" r="5.54965" fill="#e6e6e6"/><circle cx="302.37828" cy="193.68362" r="5.54965" fill="#e6e6e6"/><circle cx="330.47054" cy="193.68362" r="5.54965" fill="#e6e6e6"/><circle cx="358.5628" cy="193.68362" r="5.54965" fill="#e6e6e6"/><circle cx="386.65506" cy="193.68362" r="5.54965" fill="#e6e6e6"/><circle cx="414.74732" cy="193.68362" r="5.54965" fill="#e6e6e6"/><circle cx="442.83958" cy="193.68362" r="5.54965" fill="#e6e6e6"/><circle cx="470.93185" cy="193.68362" r="5.54965" fill="#e6e6e6"/><circle cx="499.02411" cy="193.68362" r="5.54965" fill="#e6e6e6"/><circle cx="527.11637" cy="193.68362" r="5.54965" fill="#e6e6e6"/><circle cx="555.20863" cy="193.68362" r="5.54965" fill="#e6e6e6"/><circle cx="583.30089" cy="193.68362" r="5.54965" fill="#e6e6e6"/><circle cx="611.39315" cy="193.68362" r="5.54965" fill="#e6e6e6"/><circle cx="639.48541" cy="193.68362" r="5.54965" fill="#e6e6e6"/><circle cx="667.57767" cy="193.68362" r="5.54965" fill="#e6e6e6"/><circle cx="695.66993" cy="193.68362" r="5.54965" fill="#e6e6e6"/><circle cx="723.7622" cy="193.68362" r="5.54965" fill="#e6e6e6"/><circle cx="751.85446" cy="193.68362" r="5.54965" fill="#e6e6e6"/><circle cx="779.94672" cy="193.68362" r="5.54965" fill="#e6e6e6"/><circle cx="190.00923" cy="222.1285" r="5.54965" fill="#e6e6e6"/><circle cx="218.10149" cy="222.1285" r="5.54965" fill="#e6e6e6"/><circle cx="246.19376" cy="222.1285" r="5.54965" fill="#e6e6e6"/><circle cx="274.28602" cy="222.1285" r="5.54965" fill="#e6e6e6"/><circle cx="302.37828" cy="222.1285" r="5.54965" fill="#e6e6e6"/><circle cx="330.47054" cy="222.1285" r="5.54965" fill="#e6e6e6"/><circle cx="358.5628" cy="222.1285" r="5.54965" fill="#e6e6e6"/><circle cx="386.65506" cy="222.1285" r="5.54965" fill="#e6e6e6"/><circle cx="414.74732" cy="222.1285" r="5.54965" fill="#e6e6e6"/><circle cx="442.83958" cy="222.1285" r="5.54965" fill="#e6e6e6"/><circle cx="470.93185" cy="222.1285" r="5.54965" fill="#e6e6e6"/><circle cx="499.02411" cy="222.1285" r="5.54965" fill="#e6e6e6"/><circle cx="527.11637" cy="222.1285" r="5.54965" fill="#e6e6e6"/><circle cx="555.20863" cy="222.1285" r="5.54965" fill="#e6e6e6"/><circle cx="583.30089" cy="222.1285" r="5.54965" fill="#e6e6e6"/><circle cx="611.39315" cy="222.1285" r="5.54965" fill="#e6e6e6"/><circle cx="639.48541" cy="222.1285" r="5.54965" fill="#e6e6e6"/><circle cx="667.57767" cy="222.1285" r="5.54965" fill="#e6e6e6"/><circle cx="695.66993" cy="222.1285" r="5.54965" fill="#e6e6e6"/><circle cx="723.7622" cy="222.1285" r="5.54965" fill="#e6e6e6"/><circle cx="751.85446" cy="222.1285" r="5.54965" fill="#e6e6e6"/><circle cx="779.94672" cy="222.1285" r="5.54965" fill="#e6e6e6"/><circle cx="190.00923" cy="250.57337" r="5.54965" fill="#e6e6e6"/><circle cx="218.10149" cy="250.57337" r="5.54965" fill="#e6e6e6"/><circle cx="246.19376" cy="250.57337" r="5.54965" fill="#e6e6e6"/><circle cx="274.28602" cy="250.57337" r="5.54965" fill="#e6e6e6"/><circle cx="302.37828" cy="250.57337" r="5.54965" fill="#e6e6e6"/><circle cx="330.47054" cy="250.57337" r="5.54965" fill="#e6e6e6"/><circle cx="358.5628" cy="250.57337" r="5.54965" fill="#e6e6e6"/><circle cx="386.65506" cy="250.57337" r="5.54965" fill="#e6e6e6"/><circle cx="414.74732" cy="250.57337" r="5.54965" fill="#e6e6e6"/><circle cx="442.83958" cy="250.57337" r="5.54965" fill="#e6e6e6"/><circle cx="470.93185" cy="250.57337" r="5.54965" fill="#e6e6e6"/><circle cx="499.02411" cy="250.57337" r="5.54965" fill="#e6e6e6"/><circle cx="527.11637" cy="250.57337" r="5.54965" fill="#e6e6e6"/><circle cx="555.20863" cy="250.57337" r="5.54965" fill="#e6e6e6"/><circle cx="583.30089" cy="250.57337" r="5.54965" fill="#e6e6e6"/><circle cx="611.39315" cy="250.57337" r="5.54965" fill="#e6e6e6"/><circle cx="639.48541" cy="250.57337" r="5.54965" fill="#e6e6e6"/><circle cx="667.57767" cy="250.57337" r="5.54965" fill="#e6e6e6"/><circle cx="695.66993" cy="250.57337" r="5.54965" fill="#e6e6e6"/><circle cx="723.7622" cy="250.57337" r="5.54965" fill="#e6e6e6"/><circle cx="751.85446" cy="250.57337" r="5.54965" fill="#e6e6e6"/><circle cx="779.94672" cy="250.57337" r="5.54965" fill="#e6e6e6"/><circle cx="190.00923" cy="279.01825" r="5.54965" fill="#e6e6e6"/><circle cx="218.10149" cy="279.01825" r="5.54965" fill="#e6e6e6"/><circle cx="246.19376" cy="279.01825" r="5.54965" fill="#e6e6e6"/><circle cx="274.28602" cy="279.01825" r="5.54965" fill="#e6e6e6"/><circle cx="302.37828" cy="279.01825" r="5.54965" fill="#e6e6e6"/><circle cx="330.47054" cy="279.01825" r="5.54965" fill="#e6e6e6"/><circle cx="358.5628" cy="279.01825" r="5.54965" fill="#e6e6e6"/><circle cx="386.65506" cy="279.01825" r="5.54965" fill="#e6e6e6"/><circle cx="414.74732" cy="279.01825" r="5.54965" fill="#e6e6e6"/><circle cx="442.83958" cy="279.01825" r="5.54965" fill="#e6e6e6"/><circle cx="470.93185" cy="279.01825" r="5.54965" fill="#e6e6e6"/><circle cx="499.02411" cy="279.01825" r="5.54965" fill="#e6e6e6"/><circle cx="527.11637" cy="279.01825" r="5.54965" fill="#e6e6e6"/><circle cx="555.20863" cy="279.01825" r="5.54965" fill="#e6e6e6"/><circle cx="583.30089" cy="279.01825" r="5.54965" fill="#e6e6e6"/><circle cx="611.39315" cy="279.01825" r="5.54965" fill="#e6e6e6"/><circle cx="639.48541" cy="279.01825" r="5.54965" fill="#e6e6e6"/><circle cx="667.57767" cy="279.01825" r="5.54965" fill="#e6e6e6"/><circle cx="695.66993" cy="279.01825" r="5.54965" fill="#e6e6e6"/><circle cx="723.7622" cy="279.01825" r="5.54965" fill="#e6e6e6"/><circle cx="751.85446" cy="279.01825" r="5.54965" fill="#e6e6e6"/><circle cx="779.94672" cy="279.01825" r="5.54965" fill="#e6e6e6"/><circle cx="190.00923" cy="307.46313" r="5.54965" fill="#e6e6e6"/><circle cx="218.10149" cy="307.46313" r="5.54965" fill="#e6e6e6"/><circle cx="246.19376" cy="307.46313" r="5.54965" fill="#e6e6e6"/><circle cx="274.28602" cy="307.46313" r="5.54965" fill="#e6e6e6"/><circle cx="302.37828" cy="307.46313" r="5.54965" fill="#e6e6e6"/><circle cx="330.47054" cy="307.46313" r="5.54965" fill="#e6e6e6"/><circle cx="358.5628" cy="307.46313" r="5.54965" fill="#e6e6e6"/><circle cx="386.65506" cy="307.46313" r="5.54965" fill="#e6e6e6"/><circle cx="414.74732" cy="307.46313" r="5.54965" fill="#e6e6e6"/><circle cx="442.83958" cy="307.46313" r="5.54965" fill="#e6e6e6"/><circle cx="470.93185" cy="307.46313" r="5.54965" fill="#e6e6e6"/><circle cx="499.02411" cy="307.46313" r="5.54965" fill="#e6e6e6"/><circle cx="527.11637" cy="307.46313" r="5.54965" fill="#e6e6e6"/><circle cx="555.20863" cy="307.46313" r="5.54965" fill="#e6e6e6"/><circle cx="583.30089" cy="307.46313" r="5.54965" fill="#e6e6e6"/><circle cx="611.39315" cy="307.46313" r="5.54965" fill="#e6e6e6"/><circle cx="639.48541" cy="307.46313" r="5.54965" fill="#e6e6e6"/><circle cx="667.57767" cy="307.46313" r="5.54965" fill="#e6e6e6"/><circle cx="695.66993" cy="307.46313" r="5.54965" fill="#e6e6e6"/><circle cx="723.7622" cy="307.46313" r="5.54965" fill="#e6e6e6"/><circle cx="751.85446" cy="307.46313" r="5.54965" fill="#e6e6e6"/><circle cx="779.94672" cy="307.46313" r="5.54965" fill="#e6e6e6"/><circle cx="190.00923" cy="335.908" r="5.54965" fill="#e6e6e6"/><circle cx="218.10149" cy="335.908" r="5.54965" fill="#e6e6e6"/><circle cx="246.19376" cy="335.908" r="5.54965" fill="#e6e6e6"/><circle cx="274.28602" cy="335.908" r="5.54965" fill="#e6e6e6"/><circle cx="302.37828" cy="335.908" r="5.54965" fill="#e6e6e6"/><circle cx="330.47054" cy="335.908" r="5.54965" fill="#e6e6e6"/><circle cx="358.5628" cy="335.908" r="5.54965" fill="#e6e6e6"/><circle cx="386.65506" cy="335.908" r="5.54965" fill="#e6e6e6"/><circle cx="414.74732" cy="335.908" r="5.54965" fill="#e6e6e6"/><circle cx="442.83958" cy="335.908" r="5.54965" fill="#e6e6e6"/><circle cx="470.93185" cy="335.908" r="5.54965" fill="#e6e6e6"/><circle cx="499.02411" cy="335.908" r="5.54965" fill="#e6e6e6"/><circle cx="527.11637" cy="335.908" r="5.54965" fill="#e6e6e6"/><circle cx="555.20863" cy="335.908" r="5.54965" fill="#e6e6e6"/><circle cx="583.30089" cy="335.908" r="5.54965" fill="#e6e6e6"/><circle cx="611.39315" cy="335.908" r="5.54965" fill="#e6e6e6"/><circle cx="639.48541" cy="335.908" r="5.54965" fill="#e6e6e6"/><circle cx="667.57767" cy="335.908" r="5.54965" fill="#e6e6e6"/><circle cx="695.66993" cy="335.908" r="5.54965" fill="#e6e6e6"/><circle cx="723.7622" cy="335.908" r="5.54965" fill="#e6e6e6"/><circle cx="751.85446" cy="335.908" r="5.54965" fill="#e6e6e6"/><circle cx="779.94672" cy="335.908" r="5.54965" fill="#e6e6e6"/><rect y="341.12316" width="888" height="2.24072"/><circle cx="857.37804" cy="271.93466" r="28.89362" fill="#6c63ff"/><circle cx="869.39158" cy="309.4043" r="3.67737"/><path d="M483.52846,398.70427H598.7473V407.862H494.09019v68.92413h98.41609v9.15775H494.09019v75.672H599.9475v9.15774h-116.419Zm125.54053,0h12.242l54.24887,75.67195,55.44907-75.67195,75.41978-96.12077L682.521,482.329l63.85044,88.44458H733.64936l-58.0895-80.4918-58.32953,80.4918H604.74827L669.0788,482.329ZM750.93216,407.862v-9.15775H882.23365V407.862h-60.4899V570.77359H811.182V407.862Zm-411.54723-9.15775h13.20216L534.63714,671.12478,459.40456,570.77359,350.42674,411.71792l-.48008,159.05567H339.38493ZM881.16952,558.85222a3.833,3.833,0,1,1,3.77622-3.83256A3.73261,3.73261,0,0,1,881.16952,558.85222Zm10.37817-10.083h5.65146c.07708,3.06091,2.312,5.11868,5.60011,5.11868,3.67347,0,5.75421-2.2121,5.75421-6.35335V521.29808h5.75425v26.26219c0,7.45939-4.31569,11.755-11.45708,11.755C896.14594,559.31523,891.54769,555.14826,891.54769,548.76921Zm30.28676-.33439h5.70284c.4881,3.52391,3.93035,5.76173,8.88824,5.76173,4.624,0,8.01483-2.39215,8.01483-5.68457,0-2.82943-2.15783-4.52707-7.06434-5.68456l-4.77809-1.15749c-6.7047-1.56905-9.76161-4.81-9.76161-10.26309,0-6.61056,5.39458-11.009,13.48645-11.009,7.52674,0,13.0241,4.39847,13.358,10.64892h-5.60008c-.53948-3.421-3.51933-5.556-7.835-5.556-4.54688,0-7.57811,2.18636-7.57811,5.53023,0,2.64936,1.95232,4.167,6.78175,5.29873l4.08448,1.00316c7.60381,1.77482,10.7378,4.86146,10.7378,10.44315,0,7.09928-5.49732,11.54918-14.28281,11.54918C927.7685,559.31523,922.24547,555.07109,921.83445,548.43482Z" transform="translate(-156 -228.87522)"/><circle cx="119.864" cy="63.38029" r="10.7783" fill="#6c63ff"/><path d="M278.86687,281.7739a10.77979,10.77979,0,0,1,9.48819,15.89357A10.77573,10.77573,0,1,0,270.452,285.827,10.7517,10.7517,0,0,1,278.86687,281.7739Z" transform="translate(-156 -228.87522)" fill="#6c63ff"/><circle cx="99.72319" cy="31.6962" r="31.66125" fill="#6c63ff"/><path d="M230.87426,240.92712a31.65557,31.65557,0,0,1,43.87848-3.31975c-.25891-.24611-.51507-.49421-.78409-.73337A31.66126,31.66126,0,0,0,231.897,284.19961c.269.23916.54542.46449.82017.69278A31.65557,31.65557,0,0,1,230.87426,240.92712Z" transform="translate(-156 -228.87522)" fill="#6c63ff"/><path d="M286.254,341.28137l4.87038,27.59877,5.68209,54.38581s1.62346,21.91667-5.68209,22.7284-5.6821-24.35186-5.6821-24.35186L277.325,375.374l-3.24691-28.41049Z" transform="translate(-156 -228.87522)" fill="#fbbebe"/><circle cx="100.22002" cy="38.53885" r="19.48148" fill="#fbbebe"/><polygon points="84.797 46.656 81.55 65.326 102.655 70.196 102.655 52.338 84.797 46.656" fill="#fbbebe"/><polygon points="34.47 319.397 32.035 335.631 41.776 336.443 47.458 322.644 34.47 319.397" fill="#fbbebe"/><polygon points="109.961 321.832 112.396 334.82 122.948 334.82 122.948 322.644 109.961 321.832" fill="#fbbebe"/><path d="M273.26632,368.88014l-53.57409,8.11728-3.24691,38.15124-6.49383,55.19754-23.54013,80.36113,23.54013,2.43518,42.20989-107.95989,10.55247,108.77162H287.0657l1.62346-111.20681s.81173-61.69137-12.17593-65.75Z" transform="translate(-156 -228.87522)"/><path d="M200.21075,562.88326l-13.79939-2.43519-5.6821,27.59877s-10.55247,37.33951,3.24692,34.0926,11.3642-34.0926,11.3642-34.0926Z" transform="translate(-156 -228.87522)"/><path d="M265.96076,562.88326l13.79939-2.43519,5.6821,27.59877s10.55247,37.33951-3.24692,34.0926-11.3642-34.0926-11.3642-34.0926Z" transform="translate(-156 -228.87522)"/><path d="M198.58729,329.10544s-6.49383,34.0926-3.24691,42.20988,21.91667,36.52779,21.91667,36.52779l5.6821-12.17593-16.23457-31.65741,5.6821-32.46915Z" transform="translate(-156 -228.87522)" fill="#fbbebe"/><path d="M262.71385,305.56531l-1.62346-12.17593s-20.29321-3.24691-23.54013-8.929l-5.6821,9.74074-18.66975,4.05864s-10.55247,0-11.3642,8.11729-5.6821,24.35186-5.6821,24.35186l14.61111,4.87037,11.3642,42.20988,48.70371-7.30556L268.396,348.58692l2.43518-5.6821,2.43519,6.49383,15.42284-3.24691s.81173-29.22223-14.61111-34.0926Z" transform="translate(-156 -228.87522)"/><polygon points="82.014 17.207 82.014 37.599 86.737 37.599 92.747 31.16 91.942 37.599 112.817 37.599 111.529 31.16 114.105 37.599 117.432 37.599 117.432 17.207 82.014 17.207" fill="#6c63ff"/><polygon points="858.878 343.354 855.878 343.354 857.378 272.354 858.878 343.354"/><polygon points="858 334.354 856.538 333.23 870.865 306.829 858 334.354"/></svg>