<svg width="280" height="140" viewBox="0 0 280 140" fill="none" xmlns="http://www.w3.org/2000/svg">
<rect width="280" height="140" fill="#F4F5F7"/>
<circle cx="140" cy="68" r="20" fill="#D2D6DC"/>
<path fill-rule="evenodd" clip-rule="evenodd" d="M140.001 69.6654C143.683 69.6654 146.668 66.6806 146.668 62.9987C146.668 59.3168 143.683 56.332 140.001 56.332C136.319 56.332 133.334 59.3168 133.334 62.9987C133.334 66.6806 136.319 69.6654 140.001 69.6654ZM140.005 72.999C133.661 72.999 127.869 75.3621 123.461 79.2561C127.061 84.5341 133.123 87.999 139.994 87.999C146.871 87.999 152.937 84.5288 156.536 79.244C152.13 75.3572 146.343 72.999 140.005 72.999Z" fill="#9FA6B2"/>
<circle cx="154" cy="54" r="6" fill="#31C48D" stroke="white" stroke-width="2"/>
</svg>
