<svg width="280" height="140" viewBox="0 0 280 140" fill="none" xmlns="http://www.w3.org/2000/svg">
<rect width="280" height="140" fill="white"/>
<rect width="280" height="140" fill="#F4F5F7"/>
<rect width="280" height="140" fill="#F4F5F7"/>
<g filter="url(#filter0_dd)">
<rect x="30" y="53" width="220" height="34" rx="4" fill="white"/>
<rect x="29.5" y="52.5" width="221" height="35" rx="4.5" stroke="black" stroke-opacity="0.04"/>
</g>
<rect x="38" y="77" width="20" height="2" rx="1" fill="#D2D6DC"/>
<path d="M41.8308 62.1278C39.9387 62.1193 38.6816 63.4148 38.6816 65.1364C38.6816 66.7898 39.8578 67.9787 41.3876 67.9787C42.3294 67.9787 43.1475 67.5227 43.5694 66.7727H43.6291C43.6248 68.6392 42.9473 69.7514 41.7413 69.7514C40.987 69.7514 40.4799 69.3168 40.3223 68.6222H38.7669C38.9458 70.0668 40.0879 71.1193 41.7413 71.1193C43.8336 71.1193 45.1589 69.3722 45.1632 66.3679C45.1589 63.1676 43.5055 62.1406 41.8308 62.1278ZM41.835 63.4062C42.7683 63.4062 43.4544 64.1818 43.4544 65.0938C43.4544 66.0014 42.7385 66.777 41.818 66.777C40.889 66.777 40.2157 66.044 40.2157 65.1023C40.2157 64.152 40.9103 63.4062 41.835 63.4062ZM49.612 62.1278C47.72 62.1193 46.4629 63.4148 46.4629 65.1364C46.4629 66.7898 47.639 67.9787 49.1689 67.9787C50.1106 67.9787 50.9288 67.5227 51.3507 66.7727H51.4103C51.4061 68.6392 50.7285 69.7514 49.5225 69.7514C48.7683 69.7514 48.2612 69.3168 48.1035 68.6222H46.5481C46.7271 70.0668 47.8691 71.1193 49.5225 71.1193C51.6149 71.1193 52.9402 69.3722 52.9444 66.3679C52.9402 63.1676 51.2868 62.1406 49.612 62.1278ZM49.6163 63.4062C50.5495 63.4062 51.2356 64.1818 51.2356 65.0938C51.2356 66.0014 50.5197 66.777 49.5993 66.777C48.6703 66.777 47.997 66.044 47.997 65.1023C47.997 64.152 48.6916 63.4062 49.6163 63.4062ZM55.3308 71.0938C55.8336 71.0938 56.264 70.6761 56.2683 70.1562C56.264 69.6449 55.8336 69.2273 55.3308 69.2273C54.8109 69.2273 54.389 69.6449 54.3933 70.1562C54.389 70.6761 54.8109 71.0938 55.3308 71.0938ZM60.8738 62.1278C58.9817 62.1193 57.7246 63.4148 57.7246 65.1364C57.7246 66.7898 58.9007 67.9787 60.4306 67.9787C61.3723 67.9787 62.1905 67.5227 62.6124 66.7727H62.6721C62.6678 68.6392 61.9902 69.7514 60.7843 69.7514C60.03 69.7514 59.5229 69.3168 59.3652 68.6222H57.8098C57.9888 70.0668 59.1309 71.1193 60.7843 71.1193C62.8766 71.1193 64.2019 69.3722 64.2061 66.3679C64.2019 63.1676 62.5485 62.1406 60.8738 62.1278ZM60.878 63.4062C61.8113 63.4062 62.4973 64.1818 62.4973 65.0938C62.4973 66.0014 61.7814 66.777 60.861 66.777C59.932 66.777 59.2587 66.044 59.2587 65.1023C59.2587 64.152 59.9533 63.4062 60.878 63.4062ZM70.2914 69.3636C70.2956 70.3778 70.9391 71.2429 72.1365 71.2429C73.3297 71.2429 73.986 70.3778 73.9817 69.3636V68.9034C73.986 67.8807 73.3468 67.0241 72.1365 67.0241C70.9561 67.0241 70.2956 67.8892 70.2914 68.9034V69.3636ZM65.8553 64.3693C65.8596 65.3835 66.503 66.2401 67.7047 66.2401C68.8936 66.2401 69.5499 65.392 69.5456 64.3693V63.9091C69.5499 62.8864 68.9107 62.0298 67.7047 62.0298C66.5286 62.0298 65.8596 62.8864 65.8553 63.9091V64.3693ZM66.2388 71H67.3084L73.3084 62.2727H72.2388L66.2388 71ZM71.4036 68.9034C71.4078 68.4517 71.5996 67.9957 72.1365 67.9957C72.699 67.9957 72.8652 68.4517 72.861 68.9034V69.3636C72.8652 69.8153 72.682 70.2628 72.1365 70.2628C71.5911 70.2628 71.4078 69.8111 71.4036 69.3636V68.9034ZM66.976 63.9091C66.9803 63.4616 67.1635 63.0014 67.7047 63.0014C68.2672 63.0014 68.4292 63.4574 68.4249 63.9091V64.3693C68.4292 64.821 68.2502 65.2685 67.7047 65.2685C67.1593 65.2685 66.9803 64.821 66.976 64.3693V63.9091Z" fill="#6B7280"/>
<rect x="115" y="77" width="20" height="2" rx="1" fill="#D2D6DC"/>
<rect x="190" y="77" width="20" height="2" rx="1" fill="#D2D6DC"/>
<path d="M119.503 62.2727H117.999L115.83 63.6662V65.1151L117.871 63.8111H117.922V71H119.503V62.2727ZM124.945 71.1662C127.05 71.1705 128.307 69.5085 128.307 66.6449C128.307 63.7983 127.041 62.1534 124.945 62.1534C122.848 62.1534 121.587 63.794 121.583 66.6449C121.583 69.5043 122.84 71.1662 124.945 71.1662ZM124.945 69.8324C123.858 69.8324 123.176 68.7415 123.181 66.6449C123.185 64.5653 123.862 63.4702 124.945 63.4702C126.031 63.4702 126.709 64.5653 126.713 66.6449C126.713 68.7415 126.036 69.8324 124.945 69.8324ZM129.808 62.2727V71H131.325V64.9915H131.406L133.818 70.9744H134.952L137.363 65.0043H137.444V71H138.961V62.2727H137.027L134.436 68.5966H134.334L131.743 62.2727H129.808Z" fill="#6B7280"/>
<path d="M190.852 71H196.835V69.679H193.034V69.6193L194.538 68.0895C196.234 66.4616 196.703 65.669 196.703 64.6847C196.703 63.223 195.514 62.1534 193.758 62.1534C192.028 62.1534 190.801 63.2273 190.801 64.8849H192.305C192.305 63.9943 192.867 63.4361 193.737 63.4361C194.568 63.4361 195.186 63.9432 195.186 64.7656C195.186 65.4943 194.742 66.0142 193.882 66.8878L190.852 69.858V71ZM197.96 69.3807H202.123V71H203.632V69.3807H204.748V68.081H203.632V62.2727H201.663L197.96 68.1236V69.3807ZM202.14 68.081H199.579V68.0128L202.072 64.0625H202.14V68.081ZM209.689 61.8636H208.338L205.526 72.3125H206.877L209.689 61.8636ZM210.976 71H212.617L216.324 63.6236V62.2727H210.379V63.5938H214.688V63.6534L210.976 71Z" fill="#6B7280"/>
<rect x="102" y="53" width="1" height="34" fill="#E5E7EB"/>
<rect x="178" y="53" width="1" height="34" fill="#E5E7EB"/>
<defs>
<filter id="filter0_dd" x="24" y="50" width="232" height="46" filterUnits="userSpaceOnUse" color-interpolation-filters="sRGB">
<feFlood flood-opacity="0" result="BackgroundImageFix"/>
<feColorMatrix in="SourceAlpha" type="matrix" values="0 0 0 0 0 0 0 0 0 0 0 0 0 0 0 0 0 0 127 0"/>
<feOffset dy="3"/>
<feGaussianBlur stdDeviation="2.5"/>
<feColorMatrix type="matrix" values="0 0 0 0 0 0 0 0 0 0 0 0 0 0 0 0 0 0 0.04 0"/>
<feBlend mode="normal" in2="BackgroundImageFix" result="effect1_dropShadow"/>
<feColorMatrix in="SourceAlpha" type="matrix" values="0 0 0 0 0 0 0 0 0 0 0 0 0 0 0 0 0 0 127 0"/>
<feOffset dy="1"/>
<feGaussianBlur stdDeviation="1"/>
<feColorMatrix type="matrix" values="0 0 0 0 0 0 0 0 0 0 0 0 0 0 0 0 0 0 0.03 0"/>
<feBlend mode="normal" in2="effect1_dropShadow" result="effect2_dropShadow"/>
<feBlend mode="normal" in="SourceGraphic" in2="effect2_dropShadow" result="shape"/>
</filter>
</defs>
</svg>
