<svg width="280" height="140" viewBox="0 0 280 140" fill="none" xmlns="http://www.w3.org/2000/svg">
<rect width="280" height="140" fill="white"/>
<rect width="280" height="140" fill="white"/>
<rect x="30" y="54" width="68" height="3" rx="1.5" fill="#6B7280"/>
<rect x="30" y="61" width="98" height="2" rx="1" fill="#D2D6DC"/>
<rect x="30" y="66" width="102" height="2" rx="1" fill="#D2D6DC"/>
<rect x="30" y="71" width="90" height="2" rx="1" fill="#D2D6DC"/>
<rect x="140" y="54" width="52" height="3" rx="1.5" fill="#6B7280"/>
<rect x="140" y="61" width="98" height="2" rx="1" fill="#D2D6DC"/>
<rect x="140" y="66" width="105" height="2" rx="1" fill="#D2D6DC"/>
<rect x="140" y="71" width="92" height="2" rx="1" fill="#D2D6DC"/>
<rect x="30" y="89" width="68" height="3" rx="1.5" fill="#6B7280"/>
<rect x="30" y="96" width="98" height="2" rx="1" fill="#D2D6DC"/>
<rect x="30" y="101" width="102" height="2" rx="1" fill="#D2D6DC"/>
<rect x="30" y="106" width="90" height="2" rx="1" fill="#D2D6DC"/>
<rect x="140" y="89" width="52" height="3" rx="1.5" fill="#6B7280"/>
<rect x="140" y="96" width="98" height="2" rx="1" fill="#D2D6DC"/>
<rect x="140" y="101" width="105" height="2" rx="1" fill="#D2D6DC"/>
<rect x="140" y="106" width="92" height="2" rx="1" fill="#D2D6DC"/>
<rect x="30" y="45" width="220" height="1" fill="#E5E7EB"/>
<path d="M30.7891 37H32.2383V33.6016H35.5625V32.3867H32.2383V30.2148H35.9141V29H30.7891V37ZM37.2627 37L37.9229 35.0273H40.9307L41.5947 37H43.1416L40.3213 29H38.5322L35.7158 37H37.2627ZM38.3135 33.8633L39.3955 30.6406H39.458L40.54 33.8633H38.3135ZM50.9678 33C50.9678 30.4141 49.3896 28.8906 47.292 28.8906C45.1904 28.8906 43.6162 30.4141 43.6162 33C43.6162 35.582 45.1904 37.1094 47.292 37.1094C47.7998 37.1094 48.2764 37.0195 48.71 36.8477L49.3701 37.6875H50.7764L49.667 36.2656C50.4717 35.5625 50.9678 34.4492 50.9678 33ZM46.7998 34.3125L47.8818 35.7344C47.6943 35.7852 47.499 35.8086 47.292 35.8086C45.9912 35.8086 45.0732 34.8203 45.0732 33C45.0732 31.1797 45.9912 30.1914 47.292 30.1914C48.5967 30.1914 49.5107 31.1797 49.5107 33C49.5107 33.9844 49.2451 34.7227 48.792 35.1953L48.1123 34.3125H46.7998Z" fill="#4B5563"/>
</svg>
