<svg width="280" height="140" viewBox="0 0 280 140" fill="none" xmlns="http://www.w3.org/2000/svg">
<rect width="280" height="140" fill="white"/>
<rect width="280" height="140" fill="white"/>
<rect x="102" y="35" width="76" height="3" rx="1.5" fill="#6B7280"/>
<rect x="84" y="42" width="111" height="2" rx="1" fill="#D2D6DC"/>
<rect x="90" y="47" width="100" height="2" rx="1" fill="#D2D6DC"/>
<rect x="30" y="85" width="44" height="2" rx="1" fill="#9FA6B2"/>
<rect x="30" y="91" width="64" height="2" rx="1" fill="#D2D6DC"/>
<rect x="30" y="96" width="60" height="2" rx="1" fill="#D2D6DC"/>
<rect x="30" y="101" width="39" height="2" rx="1" fill="#D2D6DC"/>
<rect x="110" y="65" width="12" height="12" rx="3" fill="#D2D6DC"/>
<rect x="30" y="65" width="12" height="12" rx="3" fill="#D2D6DC"/>
<rect x="110" y="85" width="44" height="2" rx="1" fill="#9FA6B2"/>
<rect x="110" y="91" width="56" height="2" rx="1" fill="#D2D6DC"/>
<rect x="110" y="96" width="60" height="2" rx="1" fill="#D2D6DC"/>
<rect x="110" y="101" width="47" height="2" rx="1" fill="#D2D6DC"/>
<rect x="190" y="65" width="12" height="12" rx="3" fill="#D2D6DC"/>
<rect x="190" y="85" width="44" height="2" rx="1" fill="#9FA6B2"/>
<rect x="190" y="91" width="56" height="2" rx="1" fill="#D2D6DC"/>
<rect x="190" y="96" width="52" height="2" rx="1" fill="#D2D6DC"/>
<rect x="190" y="101" width="57" height="2" rx="1" fill="#D2D6DC"/>
</svg>
