<svg width="280" height="140" viewBox="0 0 280 140" fill="none" xmlns="http://www.w3.org/2000/svg">
<rect width="280" height="140" fill="white"/>
<rect width="280" height="140" fill="#F4F5F7"/>
<rect x="30" y="28" width="68" height="2" rx="1" fill="#D2D6DC"/>
<rect x="30" y="32" width="58" height="2" rx="1" fill="#D2D6DC"/>
<rect x="30" y="22" width="28" height="3" rx="1.5" fill="#6B7280"/>
<rect x="106" y="22" width="28" height="2" rx="1" fill="#9FA6B2"/>
<g filter="url(#filter0_d)">
<rect x="106" y="27" width="68" height="8" rx="2" fill="white"/>
<rect x="105.5" y="26.5" width="69" height="9" rx="2.5" stroke="black" stroke-opacity="0.08"/>
</g>
<rect x="106" y="40" width="28" height="2" rx="1" fill="#9FA6B2"/>
<g filter="url(#filter1_d)">
<rect x="106" y="45" width="144" height="8" rx="2" fill="white"/>
<rect x="105.5" y="44.5" width="145" height="9" rx="2.5" stroke="black" stroke-opacity="0.08"/>
</g>
<rect x="106" y="58" width="28" height="2" rx="1" fill="#9FA6B2"/>
<g filter="url(#filter2_d)">
<rect x="106" y="63" width="144" height="16" rx="2" fill="white"/>
<rect x="105.5" y="62.5" width="145" height="17" rx="2.5" stroke="black" stroke-opacity="0.08"/>
</g>
<rect x="182" y="22" width="31" height="2" rx="1" fill="#9FA6B2"/>
<g filter="url(#filter3_d)">
<rect x="182" y="27" width="68" height="8" rx="2" fill="white"/>
<rect x="181.5" y="26.5" width="69" height="9" rx="2.5" stroke="black" stroke-opacity="0.08"/>
</g>
<rect x="30" y="14" width="220" height="1" fill="#D2D6DC"/>
<rect x="30" y="101" width="68" height="2" rx="1" fill="#D2D6DC"/>
<rect x="30" y="105" width="58" height="2" rx="1" fill="#D2D6DC"/>
<rect x="30" y="95" width="28" height="3" rx="1.5" fill="#6B7280"/>
<rect x="106" y="95" width="28" height="2" rx="1" fill="#9FA6B2"/>
<g filter="url(#filter4_d)">
<rect x="106" y="100" width="68" height="8" rx="2" fill="white"/>
<rect x="105.5" y="99.5" width="69" height="9" rx="2.5" stroke="black" stroke-opacity="0.08"/>
</g>
<rect x="106" y="113" width="22" height="2" rx="1" fill="#9FA6B2"/>
<g filter="url(#filter5_d)">
<rect x="106" y="118" width="144" height="8" rx="2" fill="white"/>
<rect x="105.5" y="117.5" width="145" height="9" rx="2.5" stroke="black" stroke-opacity="0.08"/>
</g>
<rect x="182" y="95" width="31" height="2" rx="1" fill="#9FA6B2"/>
<g filter="url(#filter6_d)">
<rect x="182" y="100" width="68" height="8" rx="2" fill="white"/>
<rect x="181.5" y="99.5" width="69" height="9" rx="2.5" stroke="black" stroke-opacity="0.08"/>
</g>
<rect x="30" y="87" width="220" height="1" fill="#D2D6DC"/>
<defs>
<filter id="filter0_d" x="103" y="25" width="74" height="14" filterUnits="userSpaceOnUse" color-interpolation-filters="sRGB">
<feFlood flood-opacity="0" result="BackgroundImageFix"/>
<feColorMatrix in="SourceAlpha" type="matrix" values="0 0 0 0 0 0 0 0 0 0 0 0 0 0 0 0 0 0 127 0"/>
<feOffset dy="1"/>
<feGaussianBlur stdDeviation="1"/>
<feColorMatrix type="matrix" values="0 0 0 0 0 0 0 0 0 0 0 0 0 0 0 0 0 0 0.04 0"/>
<feBlend mode="normal" in2="BackgroundImageFix" result="effect1_dropShadow"/>
<feBlend mode="normal" in="SourceGraphic" in2="effect1_dropShadow" result="shape"/>
</filter>
<filter id="filter1_d" x="103" y="43" width="150" height="14" filterUnits="userSpaceOnUse" color-interpolation-filters="sRGB">
<feFlood flood-opacity="0" result="BackgroundImageFix"/>
<feColorMatrix in="SourceAlpha" type="matrix" values="0 0 0 0 0 0 0 0 0 0 0 0 0 0 0 0 0 0 127 0"/>
<feOffset dy="1"/>
<feGaussianBlur stdDeviation="1"/>
<feColorMatrix type="matrix" values="0 0 0 0 0 0 0 0 0 0 0 0 0 0 0 0 0 0 0.04 0"/>
<feBlend mode="normal" in2="BackgroundImageFix" result="effect1_dropShadow"/>
<feBlend mode="normal" in="SourceGraphic" in2="effect1_dropShadow" result="shape"/>
</filter>
<filter id="filter2_d" x="103" y="61" width="150" height="22" filterUnits="userSpaceOnUse" color-interpolation-filters="sRGB">
<feFlood flood-opacity="0" result="BackgroundImageFix"/>
<feColorMatrix in="SourceAlpha" type="matrix" values="0 0 0 0 0 0 0 0 0 0 0 0 0 0 0 0 0 0 127 0"/>
<feOffset dy="1"/>
<feGaussianBlur stdDeviation="1"/>
<feColorMatrix type="matrix" values="0 0 0 0 0 0 0 0 0 0 0 0 0 0 0 0 0 0 0.04 0"/>
<feBlend mode="normal" in2="BackgroundImageFix" result="effect1_dropShadow"/>
<feBlend mode="normal" in="SourceGraphic" in2="effect1_dropShadow" result="shape"/>
</filter>
<filter id="filter3_d" x="179" y="25" width="74" height="14" filterUnits="userSpaceOnUse" color-interpolation-filters="sRGB">
<feFlood flood-opacity="0" result="BackgroundImageFix"/>
<feColorMatrix in="SourceAlpha" type="matrix" values="0 0 0 0 0 0 0 0 0 0 0 0 0 0 0 0 0 0 127 0"/>
<feOffset dy="1"/>
<feGaussianBlur stdDeviation="1"/>
<feColorMatrix type="matrix" values="0 0 0 0 0 0 0 0 0 0 0 0 0 0 0 0 0 0 0.04 0"/>
<feBlend mode="normal" in2="BackgroundImageFix" result="effect1_dropShadow"/>
<feBlend mode="normal" in="SourceGraphic" in2="effect1_dropShadow" result="shape"/>
</filter>
<filter id="filter4_d" x="103" y="98" width="74" height="14" filterUnits="userSpaceOnUse" color-interpolation-filters="sRGB">
<feFlood flood-opacity="0" result="BackgroundImageFix"/>
<feColorMatrix in="SourceAlpha" type="matrix" values="0 0 0 0 0 0 0 0 0 0 0 0 0 0 0 0 0 0 127 0"/>
<feOffset dy="1"/>
<feGaussianBlur stdDeviation="1"/>
<feColorMatrix type="matrix" values="0 0 0 0 0 0 0 0 0 0 0 0 0 0 0 0 0 0 0.04 0"/>
<feBlend mode="normal" in2="BackgroundImageFix" result="effect1_dropShadow"/>
<feBlend mode="normal" in="SourceGraphic" in2="effect1_dropShadow" result="shape"/>
</filter>
<filter id="filter5_d" x="103" y="116" width="150" height="14" filterUnits="userSpaceOnUse" color-interpolation-filters="sRGB">
<feFlood flood-opacity="0" result="BackgroundImageFix"/>
<feColorMatrix in="SourceAlpha" type="matrix" values="0 0 0 0 0 0 0 0 0 0 0 0 0 0 0 0 0 0 127 0"/>
<feOffset dy="1"/>
<feGaussianBlur stdDeviation="1"/>
<feColorMatrix type="matrix" values="0 0 0 0 0 0 0 0 0 0 0 0 0 0 0 0 0 0 0.04 0"/>
<feBlend mode="normal" in2="BackgroundImageFix" result="effect1_dropShadow"/>
<feBlend mode="normal" in="SourceGraphic" in2="effect1_dropShadow" result="shape"/>
</filter>
<filter id="filter6_d" x="179" y="98" width="74" height="14" filterUnits="userSpaceOnUse" color-interpolation-filters="sRGB">
<feFlood flood-opacity="0" result="BackgroundImageFix"/>
<feColorMatrix in="SourceAlpha" type="matrix" values="0 0 0 0 0 0 0 0 0 0 0 0 0 0 0 0 0 0 127 0"/>
<feOffset dy="1"/>
<feGaussianBlur stdDeviation="1"/>
<feColorMatrix type="matrix" values="0 0 0 0 0 0 0 0 0 0 0 0 0 0 0 0 0 0 0.04 0"/>
<feBlend mode="normal" in2="BackgroundImageFix" result="effect1_dropShadow"/>
<feBlend mode="normal" in="SourceGraphic" in2="effect1_dropShadow" result="shape"/>
</filter>
</defs>
</svg>
