<svg width="280" height="140" viewBox="0 0 280 140" fill="none" xmlns="http://www.w3.org/2000/svg">
<rect width="280" height="140" fill="#F4F5F7"/>
<rect width="280" height="140" fill="#F4F5F7"/>
<g filter="url(#filter0_dd)">
<rect x="30" y="49" width="68" height="59" rx="3" fill="white"/>
<rect x="29.5" y="48.5" width="69" height="60" rx="3.5" stroke="black" stroke-opacity="0.04"/>
</g>
<g filter="url(#filter1_dd)">
<rect x="106" y="49" width="68" height="59" rx="3" fill="white"/>
<rect x="105.5" y="48.5" width="69" height="60" rx="3.5" stroke="black" stroke-opacity="0.04"/>
</g>
<g filter="url(#filter2_dd)">
<rect x="182" y="49" width="68" height="59" rx="3" fill="white"/>
<rect x="181.5" y="48.5" width="69" height="60" rx="3.5" stroke="black" stroke-opacity="0.04"/>
</g>
<rect x="46" y="90" width="36" height="2" rx="1" fill="#9FA6B2"/>
<rect x="122" y="90" width="36" height="2" rx="1" fill="#9FA6B2"/>
<rect x="198" y="90" width="36" height="2" rx="1" fill="#9FA6B2"/>
<rect x="40" y="96" width="48" height="2" rx="1" fill="#D2D6DC"/>
<rect x="116" y="96" width="48" height="2" rx="1" fill="#D2D6DC"/>
<rect x="192" y="96" width="48" height="2" rx="1" fill="#D2D6DC"/>
<ellipse cx="64" cy="71.0001" rx="12" ry="12.0001" fill="#E5E7EB"/>
<path opacity="0.8" d="M54.0771 77.7543C56.722 75.4179 60.1973 74 64.0038 74C67.8064 74 71.2784 75.4149 73.9223 77.747C71.7625 80.9179 68.123 83.0001 63.9972 83.0001C59.8746 83.0001 56.2375 80.9211 54.0771 77.7543Z" fill="#9FA6B2"/>
<ellipse cx="64.001" cy="67.9922" rx="4" ry="4.00003" fill="#9FA6B2"/>
<ellipse cx="140" cy="71.0001" rx="12" ry="12.0001" fill="#E5E7EB"/>
<path opacity="0.8" d="M130.077 77.7543C132.722 75.4179 136.197 74 140.004 74C143.806 74 147.278 75.4149 149.922 77.747C147.763 80.9179 144.123 83.0001 139.997 83.0001C135.875 83.0001 132.237 80.9211 130.077 77.7543Z" fill="#9FA6B2"/>
<ellipse cx="140.001" cy="67.9922" rx="4" ry="4.00003" fill="#9FA6B2"/>
<ellipse cx="216" cy="71.0001" rx="12" ry="12.0001" fill="#E5E7EB"/>
<path opacity="0.8" d="M206.077 77.7543C208.722 75.4179 212.197 74 216.004 74C219.806 74 223.278 75.4149 225.922 77.747C223.763 80.9179 220.123 83.0001 215.997 83.0001C211.875 83.0001 208.237 80.9211 206.077 77.7543Z" fill="#9FA6B2"/>
<ellipse cx="216.001" cy="67.9922" rx="4" ry="4.00003" fill="#9FA6B2"/>
<rect x="102" y="23" width="76" height="3" rx="1.5" fill="#6B7280"/>
<rect x="84" y="30" width="111" height="2" rx="1" fill="#D2D6DC"/>
<rect x="90" y="35" width="100" height="2" rx="1" fill="#D2D6DC"/>
<defs>
<filter id="filter0_dd" x="24" y="46" width="80" height="71" filterUnits="userSpaceOnUse" color-interpolation-filters="sRGB">
<feFlood flood-opacity="0" result="BackgroundImageFix"/>
<feColorMatrix in="SourceAlpha" type="matrix" values="0 0 0 0 0 0 0 0 0 0 0 0 0 0 0 0 0 0 127 0"/>
<feOffset dy="3"/>
<feGaussianBlur stdDeviation="2.5"/>
<feColorMatrix type="matrix" values="0 0 0 0 0 0 0 0 0 0 0 0 0 0 0 0 0 0 0.04 0"/>
<feBlend mode="normal" in2="BackgroundImageFix" result="effect1_dropShadow"/>
<feColorMatrix in="SourceAlpha" type="matrix" values="0 0 0 0 0 0 0 0 0 0 0 0 0 0 0 0 0 0 127 0"/>
<feOffset dy="1"/>
<feGaussianBlur stdDeviation="1"/>
<feColorMatrix type="matrix" values="0 0 0 0 0 0 0 0 0 0 0 0 0 0 0 0 0 0 0.03 0"/>
<feBlend mode="normal" in2="effect1_dropShadow" result="effect2_dropShadow"/>
<feBlend mode="normal" in="SourceGraphic" in2="effect2_dropShadow" result="shape"/>
</filter>
<filter id="filter1_dd" x="100" y="46" width="80" height="71" filterUnits="userSpaceOnUse" color-interpolation-filters="sRGB">
<feFlood flood-opacity="0" result="BackgroundImageFix"/>
<feColorMatrix in="SourceAlpha" type="matrix" values="0 0 0 0 0 0 0 0 0 0 0 0 0 0 0 0 0 0 127 0"/>
<feOffset dy="3"/>
<feGaussianBlur stdDeviation="2.5"/>
<feColorMatrix type="matrix" values="0 0 0 0 0 0 0 0 0 0 0 0 0 0 0 0 0 0 0.04 0"/>
<feBlend mode="normal" in2="BackgroundImageFix" result="effect1_dropShadow"/>
<feColorMatrix in="SourceAlpha" type="matrix" values="0 0 0 0 0 0 0 0 0 0 0 0 0 0 0 0 0 0 127 0"/>
<feOffset dy="1"/>
<feGaussianBlur stdDeviation="1"/>
<feColorMatrix type="matrix" values="0 0 0 0 0 0 0 0 0 0 0 0 0 0 0 0 0 0 0.03 0"/>
<feBlend mode="normal" in2="effect1_dropShadow" result="effect2_dropShadow"/>
<feBlend mode="normal" in="SourceGraphic" in2="effect2_dropShadow" result="shape"/>
</filter>
<filter id="filter2_dd" x="176" y="46" width="80" height="71" filterUnits="userSpaceOnUse" color-interpolation-filters="sRGB">
<feFlood flood-opacity="0" result="BackgroundImageFix"/>
<feColorMatrix in="SourceAlpha" type="matrix" values="0 0 0 0 0 0 0 0 0 0 0 0 0 0 0 0 0 0 127 0"/>
<feOffset dy="3"/>
<feGaussianBlur stdDeviation="2.5"/>
<feColorMatrix type="matrix" values="0 0 0 0 0 0 0 0 0 0 0 0 0 0 0 0 0 0 0.04 0"/>
<feBlend mode="normal" in2="BackgroundImageFix" result="effect1_dropShadow"/>
<feColorMatrix in="SourceAlpha" type="matrix" values="0 0 0 0 0 0 0 0 0 0 0 0 0 0 0 0 0 0 127 0"/>
<feOffset dy="1"/>
<feGaussianBlur stdDeviation="1"/>
<feColorMatrix type="matrix" values="0 0 0 0 0 0 0 0 0 0 0 0 0 0 0 0 0 0 0.03 0"/>
<feBlend mode="normal" in2="effect1_dropShadow" result="effect2_dropShadow"/>
<feBlend mode="normal" in="SourceGraphic" in2="effect2_dropShadow" result="shape"/>
</filter>
</defs>
</svg>
