<svg width="280" height="140" viewBox="0 0 280 140" fill="none" xmlns="http://www.w3.org/2000/svg">
<rect width="280" height="140" fill="white"/>
<rect width="280" height="140" fill="#F4F5F7"/>
<g filter="url(#filter0_dd)">
<path d="M50 39C50 36.7909 51.7909 35 54 35H226C228.209 35 230 36.7909 230 39V102C230 104.209 228.209 106 226 106H54C51.7909 106 50 104.209 50 102V39Z" fill="white"/>
<path d="M54 34.5C51.5147 34.5 49.5 36.5147 49.5 39V102C49.5 104.485 51.5147 106.5 54 106.5H226C228.485 106.5 230.5 104.485 230.5 102V39C230.5 36.5147 228.485 34.5 226 34.5H54Z" stroke="black" stroke-opacity="0.04"/>
</g>
<rect x="58" y="48" width="37" height="2" rx="1" fill="#9FA6B2"/>
<rect x="58" y="67" width="37" height="2" rx="1" fill="#9FA6B2"/>
<rect x="58" y="86" width="160" height="2" rx="1" fill="#9FA6B2"/>
<rect x="58" y="91" width="164" height="2" rx="1" fill="#9FA6B2"/>
<rect x="58" y="96" width="132" height="2" rx="1" fill="#9FA6B2"/>
<rect x="140" y="48" width="37" height="2" rx="1" fill="#9FA6B2"/>
<rect x="140" y="67" width="37" height="2" rx="1" fill="#9FA6B2"/>
<rect x="58" y="43" width="22" height="2" rx="1" fill="#D2D6DC"/>
<rect x="58" y="62" width="22" height="2" rx="1" fill="#D2D6DC"/>
<rect x="58" y="81" width="22" height="2" rx="1" fill="#D2D6DC"/>
<rect x="140" y="43" width="22" height="2" rx="1" fill="#D2D6DC"/>
<rect x="140" y="62" width="22" height="2" rx="1" fill="#D2D6DC"/>
<defs>
<filter id="filter0_dd" x="44" y="32" width="192" height="83" filterUnits="userSpaceOnUse" color-interpolation-filters="sRGB">
<feFlood flood-opacity="0" result="BackgroundImageFix"/>
<feColorMatrix in="SourceAlpha" type="matrix" values="0 0 0 0 0 0 0 0 0 0 0 0 0 0 0 0 0 0 127 0"/>
<feOffset dy="3"/>
<feGaussianBlur stdDeviation="2.5"/>
<feColorMatrix type="matrix" values="0 0 0 0 0 0 0 0 0 0 0 0 0 0 0 0 0 0 0.04 0"/>
<feBlend mode="normal" in2="BackgroundImageFix" result="effect1_dropShadow"/>
<feColorMatrix in="SourceAlpha" type="matrix" values="0 0 0 0 0 0 0 0 0 0 0 0 0 0 0 0 0 0 127 0"/>
<feOffset dy="1"/>
<feGaussianBlur stdDeviation="1"/>
<feColorMatrix type="matrix" values="0 0 0 0 0 0 0 0 0 0 0 0 0 0 0 0 0 0 0.03 0"/>
<feBlend mode="normal" in2="effect1_dropShadow" result="effect2_dropShadow"/>
<feBlend mode="normal" in="SourceGraphic" in2="effect2_dropShadow" result="shape"/>
</filter>
</defs>
</svg>
