<svg width="280" height="140" viewBox="0 0 280 140" fill="none" xmlns="http://www.w3.org/2000/svg">
<mask id="mask0" mask-type="alpha" maskUnits="userSpaceOnUse" x="0" y="0" width="280" height="140">
<rect width="280" height="140" fill="#F4F5F7"/>
</mask>
<g mask="url(#mask0)">
<rect width="280" height="140" fill="#F4F5F7"/>
<rect width="60" height="140" fill="white"/>
<circle cx="12" cy="11" r="3" fill="#6B7280"/>
<rect x="59" width="1" height="140" fill="#D2D6DC"/>
<g filter="url(#filter0_d)">
<path d="M90 25C90 22.7909 91.7909 21 94 21H246C248.209 21 250 22.7909 250 25V141H90V25Z" fill="white"/>
<path d="M94 21.5H246C247.933 21.5 249.5 23.067 249.5 25V140.5H90.5V25C90.5 23.067 92.067 21.5 94 21.5Z" stroke="#D2D6DC"/>
</g>
<rect x="90" y="9" width="30" height="4" rx="2" fill="#6B7280"/>
<rect x="9" y="22" width="20" height="2" rx="1" fill="#9FA6B2"/>
<rect x="9" y="30" width="24" height="2" rx="1" fill="#9FA6B2"/>
<rect x="9" y="38" width="19" height="2" rx="1" fill="#9FA6B2"/>
<rect x="9" y="47" width="23" height="2" rx="1" fill="#9FA6B2"/>
<rect x="9" y="54" width="16" height="2" rx="1" fill="#9FA6B2"/>
</g>
<defs>
<filter id="filter0_d" x="88" y="20" width="164" height="124" filterUnits="userSpaceOnUse" color-interpolation-filters="sRGB">
<feFlood flood-opacity="0" result="BackgroundImageFix"/>
<feColorMatrix in="SourceAlpha" type="matrix" values="0 0 0 0 0 0 0 0 0 0 0 0 0 0 0 0 0 0 127 0"/>
<feOffset dy="1"/>
<feGaussianBlur stdDeviation="1"/>
<feColorMatrix type="matrix" values="0 0 0 0 0 0 0 0 0 0 0 0 0 0 0 0 0 0 0.05 0"/>
<feBlend mode="normal" in2="BackgroundImageFix" result="effect1_dropShadow"/>
<feBlend mode="normal" in="SourceGraphic" in2="effect1_dropShadow" result="shape"/>
</filter>
</defs>
</svg>
