<svg width="280" height="140" viewBox="0 0 280 140" fill="none" xmlns="http://www.w3.org/2000/svg">
<rect width="280" height="140" fill="white"/>
<rect width="280" height="140" fill="white"/>
<rect x="77" y="55" width="132" height="2" rx="1" fill="#9FA6B2"/>
<rect x="73" y="63" width="140" height="2" rx="1" fill="#9FA6B2"/>
<rect x="83" y="71" width="120" height="2" rx="1" fill="#9FA6B2"/>
<path d="M136.62 30C133.912 31.9117 132 35.0447 132 38.4964C132 41.3108 133.699 42.957 135.664 42.957C137.523 42.957 138.903 41.4701 138.903 39.7177C138.903 37.9653 137.682 36.6909 136.089 36.6909C135.77 36.6909 135.345 36.744 135.239 36.7971C135.505 34.9916 137.204 32.8675 138.903 31.8055L136.62 30ZM145.753 30C143.098 31.9117 141.187 35.0447 141.187 38.4964C141.187 41.3108 142.886 42.957 144.851 42.957C146.656 42.957 148.09 41.4701 148.09 39.7177C148.09 37.9653 146.816 36.6909 145.222 36.6909C144.904 36.6909 144.532 36.744 144.426 36.7971C144.691 34.9916 146.338 32.8675 148.037 31.8055L145.753 30Z" fill="#D2D6DC"/>
<rect x="76" y="79" width="134" height="2" rx="1" fill="#9FA6B2"/>
<rect x="135" y="89" width="10" height="10" rx="5" fill="#D2D6DC"/>
<rect x="127" y="103" width="26" height="2" rx="1" fill="#6B7280"/>
<rect x="125" y="108" width="30" height="2" rx="1" fill="#D2D6DC"/>
</svg>
